<svg id="svg" version="1.1" xmlns="http://www.w3.org/2000/svg" xmlns:xlink="http://www.w3.org/1999/xlink" width="400" height="108.52713178294574" viewBox="0, 0, 400,108.52713178294574"><g id="svgg"><path id="path0" d="M37.768 0.905 C 37.704 1.158,37.525 1.330,37.291 1.363 C 36.965 1.410,36.910 1.530,36.866 2.292 C 36.821 3.078,36.777 3.167,36.434 3.167 C 36.055 3.167,36.053 3.179,36.116 5.083 C 36.156 6.326,36.118 7.007,36.006 7.021 C 35.911 7.032,35.740 7.051,35.625 7.063 C 35.510 7.074,35.409 7.280,35.400 7.519 C 35.387 7.855,35.450 7.938,35.673 7.880 C 35.832 7.838,36.013 7.886,36.074 7.985 C 36.136 8.085,36.107 8.176,36.010 8.188 C 35.913 8.199,35.740 8.218,35.625 8.230 C 35.474 8.245,35.411 8.730,35.398 9.976 C 35.379 11.735,35.239 12.115,34.688 11.913 C 34.522 11.851,34.482 11.942,34.541 12.252 C 34.586 12.484,34.571 12.706,34.509 12.744 C 34.447 12.783,34.462 13.437,34.542 14.199 C 34.728 15.958,34.615 16.627,34.119 16.697 C 33.760 16.749,33.752 16.797,33.810 18.542 C 33.872 20.414,33.846 20.481,33.106 20.347 C 33.027 20.332,32.983 20.942,33.007 21.702 C 33.089 24.190,33.047 24.537,32.689 24.345 C 32.202 24.085,32.169 24.248,32.265 26.426 L 32.355 28.471 31.892 28.694 L 31.428 28.917 31.477 30.511 C 31.527 32.172,31.261 32.937,30.874 32.245 C 30.763 32.046,30.712 32.203,30.691 32.814 C 30.668 33.465,30.566 33.752,30.247 34.071 C 29.774 34.545,29.674 34.985,30.140 34.542 C 30.309 34.381,30.417 34.194,30.380 34.125 C 30.344 34.056,30.387 34.000,30.477 34.000 C 30.632 34.000,30.823 36.527,30.700 36.942 C 30.669 37.048,30.468 37.115,30.253 37.092 C 29.896 37.053,29.545 37.656,29.785 37.896 C 30.110 38.221,29.937 40.032,29.567 40.173 C 29.251 40.293,29.167 40.446,29.167 40.901 C 29.167 41.371,29.098 41.487,28.793 41.530 C 28.525 41.568,28.394 41.725,28.333 42.083 C 28.285 42.358,28.191 42.565,28.123 42.542 C 27.621 42.372,27.487 42.521,27.561 43.167 C 27.627 43.739,27.593 43.833,27.319 43.833 C 27.092 43.833,27.000 43.951,27.000 44.239 C 27.000 44.652,26.503 44.958,26.168 44.751 C 26.076 44.694,26.000 44.801,26.000 44.990 C 26.000 45.220,25.892 45.333,25.672 45.333 C 25.459 45.333,25.375 45.251,25.433 45.100 C 25.482 44.972,25.443 44.818,25.345 44.757 C 25.242 44.693,25.167 44.784,25.167 44.971 C 25.167 45.154,25.022 45.332,24.833 45.382 C 24.633 45.434,24.500 45.609,24.500 45.820 C 24.500 46.102,24.408 46.165,24.037 46.137 C 23.471 46.094,23.115 46.292,23.228 46.586 C 23.319 46.824,23.000 47.000,22.477 47.000 C 22.257 47.000,22.189 46.930,22.272 46.792 C 22.372 46.625,22.346 46.625,22.142 46.790 C 22.001 46.904,21.825 46.942,21.750 46.874 C 21.675 46.806,21.658 46.874,21.712 47.025 C 21.896 47.540,21.436 47.933,20.922 47.700 C 20.676 47.588,20.398 47.544,20.303 47.602 C 20.194 47.670,20.172 47.580,20.243 47.355 C 20.331 47.080,20.298 47.024,20.095 47.102 C 19.952 47.157,19.877 47.269,19.928 47.352 C 20.023 47.505,19.335 47.843,19.149 47.735 C 19.094 47.703,19.084 47.862,19.127 48.088 C 19.231 48.631,16.923 48.749,16.782 48.208 C 16.709 47.931,16.704 47.931,16.686 48.208 C 16.673 48.403,16.528 48.500,16.250 48.500 C 15.916 48.500,15.833 48.583,15.833 48.918 L 15.833 49.336 14.179 49.273 C 12.612 49.214,12.535 49.227,12.714 49.514 C 12.998 49.969,12.835 50.024,11.208 50.024 L 9.717 50.024 9.797 50.440 C 9.876 50.854,9.868 50.857,8.730 50.833 C 6.682 50.789,6.666 50.792,6.710 51.208 C 6.750 51.579,6.728 51.583,4.799 51.565 C 3.726 51.554,2.854 51.592,2.861 51.648 C 2.939 52.308,2.843 52.342,0.876 52.365 C 0.670 52.367,0.544 52.436,0.594 52.518 C 0.645 52.600,0.617 52.667,0.532 52.667 C 0.446 52.667,0.407 53.166,0.443 53.792 C 0.479 54.410,0.525 55.323,0.546 55.820 C 0.570 56.393,0.661 56.738,0.796 56.765 C 0.913 56.789,0.931 56.770,0.837 56.724 C 0.587 56.599,0.629 56.383,0.925 56.270 C 1.068 56.215,1.141 56.239,1.089 56.324 C 1.037 56.408,1.072 56.525,1.167 56.583 C 1.261 56.642,1.297 56.758,1.245 56.842 C 1.193 56.926,1.506 56.982,1.951 56.968 C 3.910 56.907,4.500 56.985,4.500 57.306 C 4.500 57.648,4.586 57.665,6.292 57.656 C 7.566 57.649,7.601 57.667,7.327 58.178 C 7.162 58.487,7.226 58.500,8.911 58.500 C 10.650 58.500,10.667 58.504,10.667 58.897 C 10.667 59.305,11.375 59.608,11.750 59.360 C 12.128 59.110,13.084 59.241,13.060 59.540 C 13.048 59.699,13.098 59.793,13.171 59.747 C 13.245 59.702,13.332 59.747,13.366 59.848 C 13.406 59.967,14.029 60.025,15.149 60.014 L 16.870 59.996 16.765 60.415 C 16.675 60.776,16.716 60.833,17.069 60.833 C 17.331 60.833,17.515 60.953,17.583 61.167 C 17.642 61.350,17.804 61.500,17.944 61.500 C 18.083 61.500,18.237 61.350,18.285 61.167 C 18.422 60.644,19.295 60.707,19.431 61.249 C 19.533 61.655,19.569 61.664,20.851 61.615 C 22.338 61.557,22.682 61.663,22.341 62.074 C 22.153 62.301,22.158 62.326,22.376 62.242 C 22.517 62.188,22.676 62.214,22.729 62.300 C 22.782 62.385,23.011 62.420,23.238 62.376 C 23.575 62.312,23.671 62.378,23.760 62.732 C 23.857 63.118,23.952 63.167,24.601 63.167 C 25.222 63.167,25.333 63.217,25.333 63.500 C 25.333 63.744,25.444 63.833,25.750 63.833 C 26.020 63.833,26.167 63.927,26.167 64.099 C 26.167 64.245,26.322 64.405,26.513 64.455 C 26.703 64.505,26.926 64.723,27.009 64.939 C 27.091 65.156,27.273 65.333,27.413 65.333 C 27.559 65.333,27.667 65.481,27.667 65.682 C 27.667 65.891,27.801 66.066,28.000 66.118 C 28.270 66.189,28.333 66.346,28.333 66.943 C 28.333 67.437,28.402 67.672,28.542 67.654 C 29.158 67.574,29.196 67.650,29.115 68.792 C 29.071 69.410,29.071 69.743,29.114 69.532 C 29.277 68.734,29.925 69.133,29.867 69.995 C 29.807 70.887,29.762 70.948,29.379 70.654 C 29.212 70.525,29.246 70.610,29.458 70.849 C 29.665 71.081,29.833 71.435,29.833 71.636 C 29.833 71.909,29.933 72.000,30.232 72.000 C 30.764 72.000,30.783 72.094,30.725 74.458 L 30.675 76.500 31.105 76.500 L 31.536 76.500 31.460 78.569 C 31.389 80.488,31.405 80.634,31.681 80.581 C 32.137 80.493,32.419 80.929,32.207 81.395 C 32.097 81.635,32.089 81.869,32.185 82.015 C 32.269 82.144,32.295 82.737,32.241 83.333 C 32.188 83.929,32.206 84.334,32.280 84.234 C 32.489 83.954,33.015 84.018,32.987 84.319 C 32.973 84.465,32.970 85.540,32.981 86.708 L 33.000 88.833 33.417 88.833 C 33.830 88.833,33.833 88.844,33.833 90.343 C 33.833 91.399,33.778 91.819,33.650 91.740 C 33.517 91.657,33.517 91.720,33.650 91.968 C 33.750 92.156,34.002 92.334,34.208 92.363 C 34.581 92.416,34.583 92.434,34.528 94.839 C 34.474 97.230,34.478 97.261,34.839 97.288 C 35.372 97.328,35.371 97.324,35.346 99.242 C 35.333 100.211,35.381 100.994,35.453 100.982 C 35.525 100.970,35.720 100.969,35.887 100.980 C 36.308 101.008,36.175 101.583,35.747 101.584 C 35.392 101.584,35.278 102.069,35.625 102.104 C 35.740 102.116,35.911 102.134,36.006 102.146 C 36.115 102.159,36.161 102.789,36.131 103.875 C 36.084 105.563,36.088 105.583,36.458 105.531 C 36.851 105.477,36.889 105.702,36.866 107.958 L 36.860 108.500 38.432 108.500 L 40.004 108.500 39.898 107.839 C 39.802 107.240,39.834 107.159,40.230 106.979 L 40.667 106.780 40.667 104.723 L 40.667 102.667 41.105 102.667 C 41.529 102.667,41.540 102.642,41.450 101.875 C 41.399 101.440,41.416 100.933,41.489 100.750 C 41.562 100.567,41.559 100.249,41.482 100.043 C 41.298 99.550,41.460 99.167,41.851 99.167 C 42.060 99.167,42.167 99.049,42.167 98.818 C 42.167 98.627,42.335 98.330,42.542 98.158 L 42.917 97.847 42.542 97.914 C 42.178 97.979,42.167 97.939,42.167 96.650 C 42.167 95.682,42.223 95.326,42.375 95.346 C 43.010 95.428,43.024 95.382,42.999 93.208 C 42.985 92.040,42.980 90.995,42.987 90.887 C 42.994 90.778,43.169 90.666,43.375 90.637 C 43.744 90.584,43.749 90.549,43.710 88.458 L 43.671 86.333 44.085 86.333 C 44.417 86.333,44.500 86.249,44.500 85.917 C 44.500 85.672,44.596 85.500,44.732 85.500 C 44.860 85.500,45.012 85.377,45.069 85.226 C 45.154 85.007,45.128 84.991,44.940 85.147 C 44.599 85.431,44.500 85.053,44.500 83.467 C 44.500 82.128,44.500 82.128,44.917 82.207 L 45.333 82.287 45.333 80.560 C 45.333 78.846,45.364 78.754,45.917 78.811 C 46.008 78.820,46.100 78.586,46.120 78.289 C 46.139 77.993,46.197 77.581,46.248 77.375 C 46.298 77.169,46.263 77.000,46.170 77.000 C 45.839 77.000,45.967 75.196,46.311 75.012 C 46.483 74.920,46.670 74.892,46.728 74.950 C 46.786 75.008,46.833 74.926,46.833 74.768 C 46.833 74.610,46.758 74.527,46.667 74.583 C 46.575 74.640,46.500 74.602,46.500 74.500 C 46.500 74.398,46.433 74.355,46.351 74.406 C 46.179 74.512,45.972 74.083,46.123 73.933 C 46.177 73.878,46.366 73.833,46.542 73.833 C 46.834 73.833,46.859 73.711,46.831 72.375 C 46.790 70.370,46.772 70.449,47.245 70.540 C 47.471 70.583,47.625 70.568,47.587 70.506 C 47.548 70.444,47.623 70.189,47.751 69.941 C 47.880 69.692,47.920 69.530,47.840 69.579 C 47.760 69.629,47.641 69.431,47.577 69.139 C 47.424 68.442,47.933 67.963,48.307 68.453 C 48.505 68.712,48.523 68.638,48.446 67.875 C 48.362 67.036,48.375 67.000,48.763 67.000 C 49.087 67.000,49.167 66.914,49.167 66.565 C 49.167 66.187,49.220 66.144,49.574 66.233 C 49.971 66.332,49.979 66.315,49.911 65.503 C 49.846 64.731,49.871 64.664,50.254 64.567 C 50.521 64.501,50.667 64.346,50.667 64.131 C 50.667 63.831,50.745 63.808,51.489 63.899 C 52.295 63.997,52.310 63.991,52.236 63.583 C 52.156 63.143,52.299 63.087,53.375 63.144 C 53.627 63.157,53.833 63.095,53.833 63.006 C 53.833 62.917,53.702 62.890,53.542 62.946 C 53.314 63.027,53.331 62.970,53.618 62.691 C 53.820 62.494,54.094 62.333,54.225 62.333 C 54.356 62.333,54.510 62.149,54.567 61.924 C 54.668 61.519,54.685 61.515,56.181 61.596 C 57.107 61.646,57.656 61.617,57.596 61.521 C 57.250 60.961,58.239 60.726,60.538 60.820 C 60.958 60.837,60.981 60.805,60.834 60.419 L 60.675 60.000 62.212 59.975 C 64.247 59.941,64.213 59.945,64.289 59.715 C 64.332 59.586,64.223 59.540,63.982 59.587 C 63.754 59.631,63.668 59.599,63.762 59.505 C 63.847 59.421,64.505 59.337,65.223 59.318 C 66.417 59.287,66.545 59.250,66.708 58.892 C 66.872 58.532,66.988 58.500,68.110 58.500 C 69.304 58.500,69.333 58.490,69.333 58.083 L 69.333 57.667 71.072 57.667 C 72.748 57.667,72.812 57.653,72.863 57.292 C 72.914 56.933,72.982 56.918,74.375 56.940 C 75.177 56.952,75.833 56.896,75.833 56.815 C 75.833 56.733,75.965 56.666,76.125 56.664 C 76.377 56.662,76.382 56.637,76.167 56.485 C 75.979 56.352,75.968 56.287,76.125 56.223 C 76.268 56.165,76.333 55.705,76.333 54.750 C 76.333 53.295,76.233 52.773,75.983 52.927 C 75.744 53.075,75.810 52.881,76.095 52.595 C 76.333 52.357,76.303 52.333,75.762 52.333 C 75.435 52.333,75.167 52.254,75.167 52.157 C 75.167 52.060,75.229 52.019,75.306 52.066 C 75.382 52.113,75.444 52.031,75.444 51.884 C 75.444 51.672,75.383 51.691,75.154 51.974 C 74.764 52.456,73.190 52.511,73.227 52.042 C 73.240 51.881,73.325 51.689,73.417 51.614 C 73.508 51.539,72.890 51.525,72.042 51.583 L 70.500 51.688 70.500 51.261 L 70.500 50.833 68.730 50.833 C 67.088 50.833,66.976 50.813,67.188 50.551 C 67.343 50.360,67.350 50.309,67.208 50.395 C 67.094 50.463,67.000 50.446,67.000 50.355 C 67.000 50.265,67.131 50.157,67.292 50.115 C 67.788 49.985,66.083 49.940,64.928 50.052 C 64.713 50.073,64.574 49.951,64.508 49.683 C 64.445 49.426,64.266 49.260,64.009 49.221 C 63.789 49.187,63.510 49.077,63.388 48.976 C 63.219 48.836,63.167 48.857,63.167 49.063 C 63.167 49.374,61.767 49.463,61.582 49.164 C 61.524 49.071,61.414 49.033,61.337 49.081 C 61.261 49.128,61.238 49.014,61.287 48.826 C 61.336 48.639,61.310 48.498,61.230 48.513 C 61.149 48.527,60.432 48.531,59.636 48.520 L 58.189 48.500 58.264 48.083 L 58.340 47.667 56.795 47.654 C 55.945 47.646,55.336 47.605,55.441 47.562 C 56.063 47.307,55.442 46.883,54.548 46.954 C 53.645 47.025,53.625 47.017,53.700 46.624 C 53.781 46.201,53.692 46.157,52.779 46.168 C 52.362 46.173,52.315 46.122,52.363 45.712 C 52.410 45.304,52.365 45.253,51.973 45.279 C 51.635 45.302,51.507 45.216,51.432 44.920 C 51.357 44.619,51.253 44.552,50.974 44.625 C 50.670 44.705,50.629 44.663,50.708 44.360 C 50.795 44.027,50.625 43.911,50.142 43.975 C 50.082 43.983,49.985 43.795,49.925 43.558 C 49.866 43.321,49.773 43.171,49.720 43.224 C 49.568 43.377,49.000 43.014,49.000 42.764 C 49.000 42.640,48.844 42.498,48.654 42.448 C 48.352 42.369,48.318 42.262,48.387 41.596 C 48.462 40.880,48.442 40.833,48.067 40.833 C 47.679 40.833,47.523 40.219,47.654 39.208 C 47.670 39.089,47.500 39.000,47.257 39.000 C 46.836 39.000,46.833 38.990,46.833 37.583 C 46.833 36.562,46.892 36.166,47.042 36.164 C 47.192 36.162,47.186 36.121,47.020 36.016 C 46.873 35.923,46.796 35.585,46.806 35.077 C 46.825 34.155,46.723 33.912,46.424 34.161 C 46.132 34.403,46.010 33.492,46.094 31.702 C 46.143 30.676,46.107 30.327,45.955 30.347 C 45.441 30.412,45.333 30.306,45.333 29.732 C 45.333 29.189,45.370 29.140,45.714 29.226 C 46.034 29.306,46.101 29.251,46.132 28.878 C 46.167 28.448,46.160 28.445,45.905 28.759 C 45.760 28.937,45.699 28.971,45.770 28.833 C 45.880 28.618,45.858 28.615,45.615 28.812 C 45.359 29.020,45.333 28.978,45.333 28.354 C 45.333 27.917,45.409 27.666,45.542 27.664 C 45.682 27.662,45.691 27.621,45.571 27.539 C 45.473 27.472,45.344 27.285,45.285 27.125 C 45.226 26.965,45.027 26.833,44.844 26.833 C 44.532 26.833,44.508 26.706,44.464 24.875 C 44.425 23.276,44.371 22.917,44.169 22.917 C 43.813 22.917,43.680 21.886,43.773 19.833 C 43.817 18.871,43.792 18.166,43.718 18.266 C 43.204 18.967,43.000 18.459,43.000 16.474 C 43.000 14.530,42.995 14.504,42.625 14.544 C 42.254 14.583,42.249 14.556,42.204 12.303 C 42.159 10.089,42.146 10.020,41.787 9.969 C 41.426 9.918,41.418 9.867,41.451 7.958 C 41.485 6.001,41.485 6.000,41.091 6.000 C 40.730 6.000,40.693 5.922,40.640 5.042 C 40.553 3.570,40.659 2.833,40.960 2.833 C 41.187 2.833,41.185 2.796,40.942 2.529 C 40.791 2.361,40.667 2.105,40.667 1.961 C 40.667 1.780,40.563 1.725,40.335 1.785 C 39.996 1.873,39.945 1.800,39.761 0.958 C 39.615 0.294,37.933 0.249,37.768 0.905 M33.896 13.245 C 33.844 13.379,33.841 13.585,33.888 13.703 C 33.935 13.820,33.980 13.743,33.987 13.532 C 33.995 13.285,34.069 13.190,34.192 13.266 C 34.312 13.340,34.340 13.312,34.266 13.192 C 34.107 12.936,34.009 12.950,33.896 13.245 M55.667 47.000 C 55.667 47.211,56.007 47.211,56.333 47.000 C 56.528 46.874,56.482 46.838,56.125 46.836 C 55.873 46.834,55.667 46.908,55.667 47.000 M4.444 50.944 C 4.265 51.124,4.316 51.278,4.556 51.278 C 4.678 51.278,4.778 51.178,4.778 51.056 C 4.778 50.816,4.624 50.765,4.444 50.944 M31.333 81.917 C 31.333 82.146,31.362 82.333,31.397 82.333 C 31.432 82.333,31.497 82.146,31.541 81.917 C 31.585 81.688,31.556 81.500,31.477 81.500 C 31.398 81.500,31.333 81.688,31.333 81.917 " stroke="none" fill="#fbfbfb" fill-rule="evenodd"></path><path id="path1" d="M37.667 0.163 C 37.667 0.253,37.476 0.375,37.242 0.434 C 37.009 0.492,36.856 0.578,36.903 0.625 C 37.073 0.795,36.636 1.357,36.404 1.268 C 36.230 1.202,36.163 1.321,36.153 1.714 C 36.146 2.009,36.124 2.456,36.106 2.708 C 36.079 3.081,36.141 3.167,36.444 3.167 C 36.775 3.167,36.821 3.071,36.866 2.292 C 36.910 1.530,36.965 1.410,37.291 1.363 C 37.525 1.330,37.704 1.158,37.768 0.905 C 37.933 0.249,39.615 0.294,39.761 0.958 C 39.939 1.771,39.994 1.859,40.291 1.802 C 40.663 1.730,40.754 0.500,40.387 0.500 C 40.260 0.500,40.113 0.387,40.060 0.250 C 39.949 -0.039,37.667 -0.122,37.667 0.163 M40.643 3.458 C 40.494 5.025,40.669 6.000,41.099 6.000 C 41.551 6.000,41.706 4.196,41.317 3.469 C 41.186 3.225,41.186 3.159,41.315 3.239 C 41.428 3.308,41.459 3.253,41.397 3.092 C 41.193 2.561,40.705 2.797,40.643 3.458 M35.702 4.708 C 35.592 4.839,35.552 4.997,35.613 5.057 C 35.673 5.117,35.635 5.167,35.528 5.167 C 35.402 5.167,35.333 5.512,35.333 6.152 C 35.333 7.000,35.374 7.129,35.625 7.081 C 35.785 7.051,35.973 7.020,36.042 7.013 C 36.200 6.997,36.184 5.187,36.022 4.776 C 35.918 4.512,35.872 4.502,35.702 4.708 M41.413 7.879 C 41.208 8.973,41.377 9.911,41.792 9.970 C 42.279 10.039,42.386 7.620,41.903 7.434 C 41.520 7.288,41.524 7.284,41.413 7.879 M35.379 8.008 C 35.364 8.198,35.455 8.281,35.637 8.246 C 35.791 8.217,35.977 8.186,36.052 8.179 C 36.278 8.158,36.025 7.879,35.703 7.795 C 35.500 7.742,35.393 7.812,35.379 8.008 M34.746 9.128 C 34.526 9.286,34.530 11.870,34.750 11.941 C 35.272 12.109,35.402 11.704,35.360 10.042 C 35.334 9.021,35.191 8.808,34.746 9.128 M42.167 12.495 C 42.167 14.483,42.241 14.755,42.734 14.566 C 43.288 14.354,43.010 10.834,42.421 10.608 C 42.202 10.524,42.167 10.783,42.167 12.495 M34.065 13.285 C 34.004 13.541,33.912 13.823,33.861 13.912 C 33.512 14.519,33.685 16.784,34.074 16.709 C 34.604 16.608,34.707 16.121,34.567 14.395 C 34.448 12.926,34.254 12.496,34.065 13.285 M43.000 16.806 C 43.000 18.437,43.248 18.951,43.706 18.266 C 43.974 17.866,43.764 15.253,43.479 15.430 C 43.399 15.479,43.333 15.440,43.333 15.343 C 43.333 15.246,43.258 15.167,43.167 15.167 C 43.067 15.167,43.000 15.824,43.000 16.806 M33.015 18.835 C 32.978 20.341,33.030 20.505,33.500 20.382 C 34.061 20.235,34.004 17.500,33.440 17.500 C 33.062 17.500,33.046 17.552,33.015 18.835 M43.827 19.290 C 43.823 19.451,43.788 20.004,43.748 20.517 C 43.649 21.799,43.848 22.875,44.195 22.926 C 44.648 22.992,44.612 19.483,44.157 19.199 C 43.883 19.028,43.832 19.042,43.827 19.290 M191.910 20.042 C 191.867 20.156,191.850 32.512,191.874 47.500 L 191.917 74.750 197.292 74.797 L 202.667 74.845 202.667 47.339 L 202.667 19.833 197.328 19.833 C 193.211 19.833,191.971 19.881,191.910 20.042 M32.353 21.930 C 32.158 22.657,32.177 24.680,32.377 24.556 C 32.448 24.513,32.458 24.400,32.399 24.305 C 32.329 24.192,32.405 24.193,32.624 24.310 C 33.022 24.524,33.219 23.313,33.000 22.000 C 32.931 21.587,32.865 21.363,32.852 21.500 C 32.832 21.713,32.806 21.715,32.678 21.513 C 32.567 21.337,32.483 21.444,32.353 21.930 M44.500 25.231 C 44.500 26.776,44.505 26.795,44.926 26.876 L 45.353 26.958 45.320 25.520 C 45.283 23.901,45.202 23.509,44.979 23.861 C 44.874 24.027,44.838 24.031,44.836 23.875 C 44.834 23.760,44.758 23.667,44.667 23.667 C 44.567 23.667,44.500 24.299,44.500 25.231 M31.692 26.147 C 31.541 26.243,31.454 26.725,31.425 27.620 L 31.382 28.950 31.858 28.713 C 32.299 28.492,32.333 28.406,32.333 27.501 C 32.333 26.120,32.195 25.829,31.692 26.147 M45.542 27.616 C 45.422 27.661,45.333 27.982,45.333 28.368 C 45.333 28.979,45.359 29.020,45.615 28.812 C 45.858 28.615,45.880 28.618,45.770 28.833 C 45.699 28.971,45.760 28.938,45.904 28.760 C 46.311 28.258,46.048 27.427,45.542 27.616 M31.031 29.505 C 30.668 29.894,30.553 32.488,30.901 32.435 C 31.439 32.353,31.516 32.119,31.486 30.652 C 31.453 28.999,31.468 29.036,31.031 29.505 M45.333 29.736 C 45.333 30.299,45.553 30.523,45.958 30.374 C 46.262 30.263,46.218 29.389,45.903 29.268 C 45.425 29.085,45.333 29.160,45.333 29.736 M46.093 32.258 C 45.933 33.108,46.146 34.391,46.410 34.172 C 46.522 34.079,46.663 34.052,46.724 34.113 C 46.784 34.173,46.833 33.792,46.833 33.267 C 46.833 31.799,46.312 31.089,46.093 32.258 M112.980 33.208 C 112.969 33.323,112.969 33.473,112.980 33.542 C 112.991 33.610,112.677 33.667,112.283 33.667 C 111.525 33.667,111.137 33.896,111.277 34.261 C 111.338 34.420,111.141 34.495,110.556 34.532 C 109.866 34.576,109.742 34.637,109.697 34.958 C 109.651 35.283,109.544 35.333,108.905 35.333 C 108.278 35.333,108.167 35.383,108.167 35.667 C 108.167 35.888,108.056 36.000,107.837 36.000 C 107.623 36.000,107.469 36.148,107.402 36.417 C 107.336 36.677,107.179 36.833,106.982 36.833 C 106.757 36.833,106.667 36.952,106.667 37.250 C 106.667 37.583,106.583 37.667,106.250 37.667 C 105.944 37.667,105.833 37.756,105.833 38.000 C 105.833 38.298,105.741 38.366,105.394 38.319 C 105.181 38.291,105.005 38.765,105.003 39.375 C 105.000 39.888,104.940 40.000,104.667 40.000 C 104.383 40.000,104.333 40.111,104.333 40.750 C 104.333 41.386,104.283 41.500,104.003 41.500 C 103.515 41.500,103.479 41.856,103.534 46.085 C 103.583 49.915,103.584 49.917,103.958 49.970 C 104.283 50.016,104.333 50.123,104.333 50.762 C 104.333 51.389,104.383 51.500,104.667 51.500 C 104.906 51.500,105.006 51.618,105.021 51.917 C 105.032 52.146,105.060 52.408,105.083 52.500 C 105.106 52.592,105.134 52.742,105.146 52.833 C 105.157 52.925,105.317 53.000,105.500 53.000 C 105.683 53.000,105.833 53.110,105.833 53.244 C 105.833 53.596,106.303 53.833,107.000 53.833 C 107.244 53.833,107.333 53.944,107.333 54.250 C 107.333 54.578,107.418 54.667,107.731 54.667 C 107.988 54.667,108.159 54.784,108.215 55.000 C 108.284 55.265,108.442 55.333,108.984 55.333 C 109.601 55.333,109.667 55.373,109.667 55.750 C 109.667 56.136,109.725 56.167,110.460 56.167 C 111.124 56.167,111.281 56.228,111.419 56.542 C 111.558 56.859,111.733 56.924,112.560 56.967 C 113.363 57.009,113.551 57.075,113.621 57.342 C 113.697 57.633,113.859 57.667,115.168 57.667 C 116.589 57.667,116.633 57.678,116.735 58.083 C 116.833 58.473,116.908 58.500,117.901 58.500 C 118.848 58.500,118.991 58.545,119.234 58.916 C 119.384 59.144,119.561 59.323,119.628 59.313 C 120.424 59.190,121.322 59.368,121.417 59.667 C 121.508 59.954,121.669 60.000,122.595 60.000 C 123.627 60.000,123.667 60.015,123.667 60.417 C 123.667 60.750,123.750 60.833,124.083 60.833 C 124.346 60.833,124.500 60.927,124.500 61.089 C 124.500 61.229,124.618 61.389,124.763 61.445 C 124.907 61.500,125.093 61.723,125.175 61.939 C 125.265 62.175,125.461 62.333,125.663 62.333 C 125.956 62.333,126.000 62.441,126.000 63.167 C 126.000 63.901,125.959 64.000,125.651 64.000 C 125.444 64.000,125.267 64.134,125.216 64.328 C 125.169 64.508,124.989 64.701,124.815 64.756 C 124.642 64.811,124.500 65.001,124.500 65.178 C 124.500 65.484,124.160 65.580,123.208 65.545 C 123.003 65.537,122.935 65.717,122.988 66.125 C 123.009 66.287,122.135 66.333,119.102 66.333 L 115.190 66.333 115.137 65.958 C 115.089 65.620,114.970 65.575,113.917 65.500 C 112.923 65.429,112.757 65.373,112.799 65.125 C 112.826 64.965,112.770 64.824,112.674 64.813 C 112.578 64.801,112.425 64.773,112.333 64.750 C 112.242 64.727,111.950 64.699,111.686 64.688 C 111.356 64.673,111.178 64.562,111.118 64.333 C 111.050 64.070,110.891 64.000,110.367 64.000 C 109.798 64.000,109.688 63.941,109.598 63.583 C 109.509 63.226,109.399 63.167,108.830 63.167 C 108.290 63.167,108.167 63.108,108.167 62.851 C 108.167 62.654,108.011 62.497,107.750 62.432 C 107.521 62.374,107.333 62.216,107.333 62.080 C 107.333 61.830,107.291 61.811,106.625 61.767 C 106.236 61.741,105.833 62.018,105.833 62.312 C 105.833 62.405,105.689 62.453,105.512 62.419 C 105.279 62.374,105.144 62.492,105.020 62.847 C 104.926 63.117,104.733 63.382,104.591 63.437 C 104.420 63.503,104.333 63.753,104.333 64.184 C 104.333 64.541,104.277 64.824,104.208 64.814 C 103.621 64.721,103.500 64.852,103.500 65.583 C 103.500 66.208,103.447 66.333,103.185 66.333 C 102.989 66.333,102.831 66.488,102.767 66.740 C 102.693 67.035,102.574 67.130,102.333 67.083 C 102.033 67.026,102.000 67.110,102.000 67.921 C 102.000 68.616,101.948 68.803,101.772 68.735 C 101.646 68.687,101.483 68.783,101.410 68.949 C 101.211 69.398,101.210 69.997,101.409 70.019 C 101.505 70.030,101.658 70.056,101.750 70.077 C 101.842 70.098,102.080 70.127,102.280 70.141 C 102.483 70.155,102.691 70.314,102.750 70.500 C 102.808 70.683,103.001 70.833,103.178 70.833 C 103.466 70.833,103.532 70.927,103.486 71.273 C 103.459 71.475,103.918 71.662,104.447 71.664 C 104.869 71.666,104.988 71.743,105.030 72.042 C 105.076 72.362,105.199 72.424,105.875 72.467 C 106.531 72.510,106.667 72.574,106.667 72.842 C 106.667 73.116,106.785 73.167,107.417 73.167 C 108.041 73.167,108.167 73.219,108.167 73.482 C 108.167 73.886,108.479 74.000,109.585 74.000 C 110.383 74.000,110.482 74.039,110.530 74.375 C 110.580 74.729,110.670 74.753,112.131 74.798 C 113.484 74.840,113.672 74.882,113.631 75.131 C 113.587 75.396,114.038 75.420,119.792 75.460 C 123.207 75.484,125.992 75.447,125.981 75.377 C 125.910 74.933,126.070 74.846,127.042 74.800 C 127.937 74.757,128.106 74.697,128.248 74.375 C 128.381 74.070,128.546 74.000,129.123 74.000 C 129.770 74.000,129.833 73.963,129.833 73.583 C 129.833 73.201,129.894 73.167,130.583 73.167 C 131.222 73.167,131.333 73.117,131.333 72.833 C 131.333 72.589,131.444 72.500,131.750 72.500 C 132.080 72.500,132.167 72.416,132.167 72.095 C 132.167 71.802,132.270 71.675,132.542 71.637 C 132.783 71.602,132.936 71.449,132.970 71.208 C 133.004 70.967,133.138 70.833,133.345 70.833 C 133.556 70.833,133.667 70.718,133.667 70.500 C 133.667 70.256,133.778 70.167,134.083 70.167 C 134.433 70.167,134.500 70.088,134.500 69.676 C 134.500 69.290,134.565 69.198,134.806 69.245 C 134.974 69.277,135.123 69.216,135.137 69.110 C 135.151 69.004,135.211 68.485,135.269 67.958 C 135.356 67.170,135.430 67.000,135.687 67.000 C 135.986 67.000,136.000 66.788,136.000 62.399 C 136.000 58.327,135.971 57.809,135.744 57.896 C 135.453 58.008,135.361 57.833,135.268 57.000 C 135.233 56.679,135.196 56.352,135.185 56.272 C 135.175 56.193,135.017 56.167,134.833 56.215 C 134.568 56.284,134.500 56.220,134.500 55.901 C 134.500 55.584,134.412 55.500,134.083 55.500 C 133.750 55.500,133.667 55.417,133.667 55.083 C 133.667 54.786,133.577 54.667,133.351 54.667 C 133.154 54.667,132.997 54.511,132.932 54.250 C 132.864 53.981,132.710 53.833,132.497 53.833 C 132.278 53.833,132.167 53.721,132.167 53.500 C 132.167 53.265,132.056 53.167,131.790 53.167 C 131.558 53.167,131.349 53.022,131.248 52.792 C 131.128 52.519,130.901 52.394,130.417 52.333 C 129.912 52.270,129.756 52.179,129.773 51.958 C 129.786 51.798,129.711 51.659,129.606 51.649 C 129.502 51.639,129.304 51.615,129.167 51.594 C 129.029 51.574,128.598 51.544,128.208 51.529 C 127.621 51.505,127.500 51.443,127.500 51.167 C 127.500 50.877,127.389 50.833,126.659 50.833 C 126.084 50.833,125.827 50.768,125.846 50.625 C 125.899 50.217,125.830 50.037,125.625 50.045 C 123.790 50.113,122.833 49.983,122.833 49.667 C 122.833 49.483,122.721 49.324,122.583 49.313 C 122.446 49.301,122.258 49.273,122.167 49.250 C 122.075 49.227,121.671 49.199,121.269 49.188 C 120.689 49.171,120.521 49.098,120.452 48.833 C 120.376 48.543,120.224 48.500,119.284 48.500 C 118.270 48.500,118.196 48.474,118.098 48.084 C 118.041 47.856,117.939 47.677,117.872 47.687 C 116.950 47.829,115.833 47.635,115.833 47.333 C 115.833 47.033,115.675 46.926,115.401 47.042 C 115.347 47.065,115.195 46.877,115.063 46.625 C 114.931 46.373,114.713 46.167,114.578 46.167 C 114.443 46.167,114.333 46.018,114.333 45.837 C 114.333 45.623,114.186 45.469,113.917 45.402 C 113.618 45.327,113.500 45.185,113.500 44.899 C 113.500 44.585,113.588 44.500,113.917 44.500 C 114.244 44.500,114.333 44.415,114.333 44.105 C 114.333 43.801,114.419 43.715,114.707 43.730 C 114.913 43.741,115.091 43.656,115.103 43.542 C 115.115 43.427,115.134 43.263,115.146 43.176 C 115.157 43.090,115.485 42.996,115.875 42.968 C 116.455 42.926,116.583 42.856,116.583 42.583 C 116.584 42.264,116.710 42.248,119.696 42.205 L 122.809 42.159 122.863 42.538 C 122.912 42.886,123.013 42.921,124.108 42.965 C 125.197 43.010,125.291 43.042,125.213 43.340 C 125.160 43.543,125.214 43.673,125.356 43.684 C 125.481 43.694,125.696 43.719,125.833 43.739 C 125.971 43.760,126.402 43.789,126.792 43.805 C 127.372 43.828,127.500 43.892,127.500 44.158 C 127.500 44.426,127.636 44.490,128.292 44.533 C 128.955 44.575,129.083 44.637,129.084 44.917 C 129.085 45.359,132.066 45.441,132.106 45.000 C 132.118 44.862,132.137 44.498,132.147 44.191 C 132.162 43.771,132.228 43.655,132.411 43.725 C 132.546 43.777,132.713 43.728,132.782 43.618 C 132.919 43.398,132.937 43.308,132.975 42.625 C 132.993 42.286,133.087 42.167,133.333 42.167 C 133.617 42.167,133.667 42.056,133.667 41.417 C 133.667 40.733,133.703 40.667,134.072 40.667 C 134.391 40.667,134.489 40.568,134.531 40.208 C 134.568 39.879,134.665 39.764,134.875 39.799 C 135.056 39.829,135.177 39.734,135.193 39.549 C 135.207 39.385,135.240 39.025,135.266 38.750 C 135.340 37.956,135.146 36.825,134.939 36.850 C 134.143 36.945,133.667 36.814,133.667 36.500 C 133.667 36.317,133.554 36.157,133.417 36.146 C 133.279 36.134,133.092 36.106,133.000 36.083 C 132.908 36.060,132.683 36.032,132.500 36.021 C 132.288 36.008,132.167 35.882,132.167 35.676 C 132.167 35.407,132.031 35.343,131.375 35.301 C 130.799 35.264,130.597 35.186,130.634 35.015 C 130.712 34.652,130.334 34.505,129.310 34.503 C 128.460 34.500,128.360 34.462,128.270 34.105 C 128.213 33.875,128.048 33.710,127.877 33.711 C 126.665 33.716,125.795 33.649,125.887 33.557 C 125.948 33.497,125.914 33.347,125.811 33.224 C 125.548 32.907,113.010 32.892,112.980 33.208 M157.164 33.321 C 156.986 33.544,156.620 33.663,155.914 33.726 C 155.366 33.774,154.869 33.818,154.810 33.824 C 154.752 33.829,154.714 33.965,154.727 34.125 C 154.745 34.353,154.597 34.428,154.042 34.468 C 153.452 34.511,153.318 34.586,153.233 34.926 C 153.146 35.271,153.031 35.333,152.477 35.333 C 152.035 35.333,151.790 35.419,151.722 35.596 C 151.667 35.741,151.444 35.926,151.227 36.009 C 150.992 36.098,150.833 36.294,150.833 36.496 C 150.833 36.806,150.171 36.975,149.446 36.849 C 149.370 36.836,149.352 36.895,149.405 36.981 C 149.587 37.275,149.297 37.667,148.899 37.667 C 148.616 37.667,148.500 37.760,148.500 37.988 C 148.500 38.195,148.366 38.329,148.125 38.363 C 147.890 38.397,147.731 38.551,147.699 38.776 C 147.668 38.989,147.490 39.175,147.259 39.233 C 147.021 39.292,146.879 39.445,146.893 39.624 C 146.908 39.810,146.780 39.936,146.542 39.970 C 146.265 40.009,146.167 40.134,146.167 40.446 C 146.167 40.749,146.097 40.842,145.922 40.775 C 145.787 40.723,145.621 40.772,145.551 40.882 C 145.419 41.094,145.400 41.185,145.359 41.797 C 145.344 42.025,145.183 42.233,144.959 42.316 C 144.753 42.392,144.585 42.596,144.584 42.768 C 144.584 42.941,144.490 43.092,144.375 43.104 C 144.260 43.115,144.096 43.134,144.010 43.146 C 143.923 43.157,143.829 43.485,143.801 43.875 C 143.765 44.371,143.675 44.583,143.500 44.583 C 143.190 44.583,143.027 44.925,143.012 45.606 C 143.003 45.982,142.907 46.152,142.667 46.215 C 142.343 46.300,142.273 46.652,142.274 48.198 C 142.274 48.353,142.101 48.522,141.887 48.576 L 141.500 48.673 141.500 54.073 C 141.500 59.690,141.525 60.000,141.976 60.000 C 142.143 60.000,142.258 60.146,142.269 60.375 C 142.365 62.234,142.387 62.333,142.694 62.333 C 142.992 62.333,143.092 62.720,143.009 63.542 C 142.981 63.818,143.044 63.860,143.542 63.900 C 143.661 63.910,143.786 64.236,143.833 64.667 C 143.903 65.290,143.981 65.426,144.296 65.471 C 144.505 65.500,144.665 65.613,144.651 65.721 C 144.595 66.175,144.686 66.333,145.000 66.333 C 145.239 66.333,145.339 66.451,145.354 66.750 C 145.394 67.546,145.572 67.859,145.910 67.730 C 146.068 67.669,146.159 67.790,146.196 68.112 C 146.226 68.371,146.344 68.593,146.458 68.604 C 146.943 68.653,146.999 68.673,146.980 68.792 C 146.923 69.153,147.032 69.333,147.307 69.333 C 147.475 69.333,147.699 69.521,147.803 69.750 C 147.907 69.979,148.107 70.167,148.246 70.167 C 148.389 70.167,148.500 70.313,148.500 70.500 C 148.500 70.744,148.611 70.833,148.917 70.833 C 149.313 70.833,149.409 70.977,149.344 71.468 C 149.328 71.588,149.412 71.672,149.532 71.656 C 150.337 71.548,150.833 71.681,150.833 72.004 C 150.833 72.211,150.995 72.403,151.250 72.500 C 151.479 72.587,151.667 72.776,151.667 72.920 C 151.667 73.064,151.760 73.169,151.875 73.154 C 152.687 73.049,153.146 73.183,153.197 73.542 C 153.241 73.852,153.380 73.931,154.000 74.000 C 154.600 74.067,154.740 74.142,154.700 74.378 C 154.673 74.540,154.711 74.662,154.784 74.650 C 154.857 74.637,154.973 74.645,155.042 74.668 C 155.356 74.770,155.548 74.793,156.239 74.813 C 156.823 74.829,157.000 74.904,157.084 75.170 C 157.250 75.691,169.333 75.679,169.333 75.159 C 169.333 74.887,169.458 74.830,170.083 74.813 C 170.496 74.801,170.908 74.773,171.000 74.750 C 171.092 74.727,171.275 74.699,171.407 74.688 C 171.554 74.675,171.622 74.537,171.583 74.333 C 171.526 74.036,171.609 74.000,172.343 74.000 C 172.796 74.000,173.176 73.925,173.188 73.833 C 173.199 73.742,173.218 73.573,173.229 73.458 C 173.241 73.337,173.582 73.215,174.046 73.167 C 174.483 73.121,174.840 73.027,174.837 72.958 C 174.835 72.890,174.833 72.767,174.833 72.686 C 174.833 72.605,174.983 72.500,175.167 72.452 C 175.366 72.400,175.500 72.224,175.500 72.016 C 175.500 71.695,176.122 71.528,176.875 71.647 C 176.994 71.666,177.014 71.610,177.063 71.125 C 177.074 71.010,177.252 70.893,177.458 70.863 C 177.699 70.829,177.833 70.695,177.833 70.488 C 177.833 70.256,177.949 70.167,178.250 70.167 C 178.583 70.167,178.667 70.083,178.667 69.750 C 178.667 69.457,178.757 69.333,178.973 69.333 C 179.142 69.333,179.365 69.145,179.470 68.916 C 179.575 68.686,179.749 68.517,179.857 68.541 C 179.965 68.564,180.101 68.396,180.159 68.167 C 180.218 67.938,180.355 67.741,180.466 67.729 C 180.576 67.718,180.745 67.699,180.841 67.688 C 180.936 67.676,181.002 67.573,180.988 67.458 C 180.894 66.736,181.016 66.333,181.330 66.333 C 181.543 66.333,181.697 66.186,181.765 65.917 C 181.860 65.539,182.020 65.424,182.375 65.480 C 182.444 65.491,182.500 65.168,182.500 64.762 C 182.500 64.123,182.551 64.016,182.875 63.970 C 183.192 63.925,183.258 63.800,183.299 63.161 C 183.338 62.569,183.428 62.371,183.716 62.245 C 184.025 62.109,184.092 61.925,184.141 61.083 C 184.194 60.147,184.390 59.746,184.700 59.938 C 184.774 59.983,184.833 57.423,184.833 54.250 C 184.833 51.077,184.774 48.517,184.700 48.563 C 184.395 48.751,184.193 48.359,184.153 47.499 C 184.099 46.339,184.035 46.167,183.658 46.167 C 183.411 46.167,183.342 46.014,183.301 45.375 C 183.258 44.711,183.196 44.583,182.917 44.583 C 182.644 44.583,182.568 44.444,182.500 43.816 C 182.434 43.205,182.357 43.058,182.125 43.093 C 181.918 43.124,181.833 43.024,181.833 42.747 C 181.833 42.469,181.725 42.341,181.458 42.303 C 181.147 42.259,181.075 42.131,181.032 41.542 C 181.004 41.152,180.910 40.824,180.824 40.813 C 180.737 40.801,180.573 40.782,180.458 40.771 C 180.344 40.759,180.226 40.581,180.197 40.375 C 180.163 40.140,180.028 40.000,179.833 40.000 C 179.639 40.000,179.503 39.860,179.470 39.625 C 179.436 39.384,179.283 39.231,179.042 39.197 C 178.770 39.158,178.667 39.032,178.667 38.738 C 178.667 38.417,178.580 38.333,178.250 38.333 C 177.944 38.333,177.833 38.244,177.833 38.000 C 177.833 37.754,177.722 37.667,177.409 37.667 C 177.167 37.667,176.997 37.577,177.012 37.458 C 177.083 36.919,176.978 36.833,176.250 36.833 C 175.600 36.833,175.500 36.787,175.500 36.484 C 175.500 36.278,175.366 36.101,175.172 36.050 C 174.992 36.003,174.799 35.822,174.744 35.649 C 174.665 35.400,174.483 35.333,173.888 35.333 C 173.313 35.333,173.152 35.278,173.219 35.104 C 173.358 34.742,172.989 34.500,172.300 34.500 C 171.778 34.500,171.667 34.442,171.667 34.167 C 171.667 33.983,171.554 33.824,171.417 33.813 C 171.279 33.801,171.092 33.773,171.000 33.750 C 170.908 33.727,170.496 33.699,170.083 33.688 C 169.451 33.670,169.333 33.614,169.333 33.333 C 169.333 32.825,157.569 32.813,157.164 33.321 M231.480 33.208 C 231.469 33.323,231.469 33.473,231.480 33.542 C 231.491 33.610,231.219 33.676,230.875 33.688 C 229.503 33.735,229.167 33.847,229.167 34.260 C 229.167 34.467,228.389 34.614,227.792 34.520 C 227.723 34.509,227.667 34.688,227.667 34.917 C 227.667 35.250,227.583 35.333,227.250 35.333 C 226.988 35.333,226.833 35.428,226.833 35.587 C 226.833 35.727,226.646 35.913,226.417 36.000 C 226.162 36.097,226.000 36.289,226.000 36.496 C 226.000 36.745,225.891 36.833,225.583 36.833 C 225.250 36.833,225.167 36.917,225.167 37.250 C 225.167 37.556,225.078 37.667,224.833 37.667 C 224.618 37.667,224.500 37.778,224.500 37.981 C 224.500 38.183,224.352 38.323,224.083 38.374 L 223.667 38.454 223.667 36.161 C 223.667 33.378,224.372 33.688,218.010 33.671 L 212.833 33.658 212.833 54.248 L 212.833 74.838 218.208 74.794 L 223.583 74.750 223.626 62.708 C 223.668 50.935,223.676 50.667,223.991 50.667 C 224.181 50.667,224.318 50.548,224.325 50.375 C 224.380 49.116,224.549 48.500,224.839 48.500 C 225.048 48.500,225.161 48.356,225.197 48.042 C 225.226 47.790,225.308 47.604,225.378 47.629 C 225.511 47.675,225.971 47.313,225.964 47.167 C 225.931 46.437,226.031 46.167,226.333 46.167 C 226.578 46.167,226.667 46.056,226.667 45.750 C 226.667 45.351,226.920 45.258,227.771 45.344 C 227.828 45.350,227.962 45.181,228.067 44.969 C 228.172 44.757,228.425 44.559,228.629 44.530 C 228.862 44.497,229.000 44.360,229.000 44.164 C 229.000 43.910,229.147 43.842,229.792 43.801 C 230.462 43.758,230.591 43.694,230.636 43.382 C 230.683 43.051,230.798 43.010,231.802 42.966 C 232.542 42.933,232.924 42.847,232.938 42.708 C 232.949 42.594,232.968 42.427,232.979 42.338 C 232.991 42.245,233.970 42.156,235.292 42.130 L 237.583 42.083 237.628 37.542 L 237.672 33.000 234.586 33.000 C 232.239 33.000,231.495 33.050,231.480 33.208 M284.167 33.333 C 284.167 33.635,282.906 33.836,281.958 33.686 C 281.890 33.676,281.833 33.850,281.833 34.074 C 281.833 34.442,281.756 34.487,281.042 34.533 C 280.378 34.575,280.250 34.637,280.250 34.917 C 280.250 35.149,280.123 35.264,279.833 35.297 C 278.918 35.399,278.678 35.502,278.774 35.752 C 278.860 35.977,278.730 36.031,278.208 35.990 C 278.140 35.985,278.043 36.154,277.993 36.365 C 277.939 36.598,277.758 36.771,277.535 36.803 C 277.271 36.841,277.167 36.971,277.167 37.262 C 277.167 37.583,277.080 37.667,276.750 37.667 L 276.333 37.667 276.333 35.768 C 276.333 33.438,276.977 33.673,270.713 33.715 L 265.583 33.750 265.583 60.833 L 265.583 87.917 270.958 87.952 L 276.333 87.987 276.333 79.410 L 276.333 70.833 276.750 70.833 C 277.080 70.833,277.167 70.917,277.167 71.238 C 277.167 71.532,277.270 71.658,277.542 71.697 C 277.783 71.731,277.936 71.884,277.970 72.125 C 278.009 72.398,278.135 72.500,278.436 72.500 C 278.732 72.500,278.834 72.580,278.799 72.784 C 278.762 72.999,278.890 73.080,279.333 73.117 C 280.163 73.187,280.356 73.288,280.299 73.623 C 280.259 73.864,280.393 73.926,281.042 73.967 C 281.756 74.013,281.833 74.058,281.833 74.426 C 281.833 74.650,281.890 74.824,281.958 74.814 C 282.906 74.664,284.167 74.865,284.167 75.167 C 284.167 75.493,284.278 75.500,289.603 75.500 C 294.957 75.500,295.038 75.495,294.952 75.167 C 294.874 74.871,294.953 74.830,295.641 74.805 C 296.793 74.762,296.899 74.749,297.118 74.613 C 297.228 74.545,297.278 74.384,297.229 74.255 C 297.162 74.080,297.322 74.007,297.861 73.969 C 298.422 73.928,298.620 73.833,298.748 73.542 C 298.838 73.335,299.052 73.167,299.222 73.167 C 299.392 73.167,299.570 73.017,299.618 72.833 C 299.687 72.573,299.846 72.500,300.350 72.500 C 300.894 72.500,301.010 72.437,301.096 72.093 C 301.158 71.845,301.339 71.666,301.557 71.635 C 301.783 71.602,301.937 71.444,301.970 71.208 C 302.004 70.967,302.138 70.833,302.345 70.833 C 302.549 70.833,302.667 70.718,302.667 70.519 C 302.667 70.342,302.817 70.166,303.012 70.115 C 303.203 70.065,303.395 69.885,303.439 69.714 C 303.484 69.543,303.685 69.331,303.885 69.243 C 304.248 69.084,304.273 69.028,304.313 68.269 C 304.325 68.023,304.460 67.839,304.667 67.785 C 304.866 67.733,305.000 67.558,305.000 67.349 C 305.000 67.118,305.106 67.000,305.316 67.000 C 305.675 67.000,305.833 66.690,305.833 65.986 C 305.833 65.553,305.978 65.418,306.375 65.480 C 306.444 65.491,306.509 65.425,306.521 65.333 C 306.532 65.242,306.560 65.092,306.583 65.000 C 306.606 64.908,306.634 64.467,306.646 64.019 C 306.663 63.355,306.728 63.189,307.000 63.118 C 307.291 63.042,307.333 62.891,307.333 61.932 C 307.333 60.965,307.371 60.833,307.649 60.833 C 308.151 60.833,308.167 60.626,308.164 54.195 C 308.162 48.117,308.110 47.525,307.600 47.720 C 307.367 47.810,307.333 47.622,307.333 46.227 C 307.333 44.859,307.297 44.645,307.077 44.729 C 306.755 44.853,306.636 44.516,306.511 43.125 C 306.505 43.056,306.444 43.009,306.375 43.020 C 305.970 43.084,305.847 42.928,305.801 42.292 C 305.759 41.703,305.687 41.574,305.375 41.530 C 305.104 41.492,305.000 41.365,305.000 41.072 C 305.000 40.778,304.909 40.667,304.667 40.667 C 304.428 40.667,304.327 40.549,304.313 40.250 C 304.301 40.021,304.273 39.758,304.250 39.667 C 304.227 39.575,304.199 39.425,304.188 39.333 C 304.176 39.242,304.022 39.167,303.845 39.167 C 303.638 39.167,303.504 39.033,303.470 38.792 C 303.436 38.551,303.283 38.398,303.042 38.363 C 302.801 38.329,302.667 38.195,302.667 37.988 C 302.667 37.779,302.552 37.667,302.337 37.667 C 302.123 37.667,301.969 37.519,301.902 37.250 C 301.841 37.006,301.677 36.833,301.509 36.833 C 301.350 36.833,301.135 36.645,301.030 36.416 C 300.925 36.186,300.746 36.017,300.632 36.041 C 300.518 36.064,300.399 35.915,300.367 35.708 C 300.318 35.384,300.209 35.333,299.572 35.333 C 298.958 35.333,298.833 35.280,298.833 35.018 C 298.833 34.647,298.522 34.500,297.736 34.500 C 297.291 34.500,297.167 34.432,297.167 34.188 C 297.167 33.870,296.517 33.673,295.458 33.669 C 295.112 33.667,295.000 33.585,295.000 33.333 C 295.000 33.007,294.889 33.000,289.583 33.000 C 284.278 33.000,284.167 33.007,284.167 33.333 M327.548 33.333 C 327.472 33.624,327.309 33.670,326.272 33.692 C 325.618 33.706,324.971 33.725,324.833 33.734 C 324.696 33.743,324.559 33.919,324.530 34.125 C 324.481 34.469,324.390 34.500,323.408 34.500 C 322.407 34.500,322.333 34.526,322.235 34.917 C 322.143 35.284,322.041 35.333,321.383 35.333 C 320.776 35.333,320.619 35.396,320.548 35.667 C 320.470 35.966,319.583 36.145,318.792 36.020 C 318.723 36.009,318.667 36.079,318.667 36.177 C 318.667 36.274,318.592 36.307,318.500 36.250 C 318.408 36.193,318.333 36.266,318.333 36.411 C 318.333 36.556,318.146 36.746,317.917 36.833 C 317.339 37.053,317.354 38.333,317.934 38.333 C 318.146 38.333,318.215 38.632,318.211 39.542 C 318.210 39.736,318.339 39.833,318.596 39.833 C 318.938 39.833,318.988 39.923,319.033 40.625 C 319.076 41.301,319.138 41.424,319.458 41.470 C 319.783 41.516,319.833 41.623,319.833 42.262 C 319.833 42.889,319.883 43.000,320.167 43.000 C 320.485 43.000,320.581 43.327,320.545 44.292 C 320.539 44.444,320.957 44.500,322.102 44.500 C 323.556 44.500,323.667 44.476,323.667 44.167 C 323.667 43.862,324.308 43.698,325.042 43.814 C 325.110 43.824,325.167 43.646,325.167 43.417 C 325.167 43.012,325.200 43.000,326.333 43.000 C 327.467 43.000,327.500 42.988,327.500 42.583 L 327.500 42.167 329.417 42.167 C 331.222 42.167,331.333 42.147,331.333 41.833 C 331.333 41.541,331.444 41.500,332.240 41.500 C 333.055 41.500,333.141 41.534,333.084 41.830 C 333.049 42.011,333.072 42.153,333.135 42.144 C 333.755 42.055,336.165 42.201,336.090 42.322 C 336.038 42.407,336.072 42.525,336.167 42.583 C 336.261 42.642,336.301 42.751,336.255 42.826 C 336.208 42.901,336.263 42.959,336.377 42.955 C 337.345 42.920,337.646 43.016,337.697 43.375 C 337.726 43.581,337.844 43.759,337.958 43.771 C 338.443 43.819,338.499 43.839,338.480 43.958 C 338.419 44.343,338.526 44.526,338.759 44.436 C 338.941 44.366,339.070 44.485,339.192 44.835 C 339.303 45.153,339.481 45.333,339.683 45.333 C 339.948 45.333,340.000 45.457,340.000 46.083 C 340.000 46.722,340.049 46.833,340.333 46.833 C 340.635 46.833,340.667 46.944,340.667 48.000 C 340.667 49.133,340.679 49.167,341.083 49.167 C 341.417 49.167,341.500 49.250,341.500 49.583 C 341.500 50.206,339.262 50.236,339.106 49.615 C 339.014 49.247,338.934 49.229,337.215 49.186 C 335.379 49.141,335.250 49.115,335.250 48.778 C 335.250 48.636,334.111 48.571,331.042 48.539 C 326.918 48.495,326.833 48.501,326.833 48.830 C 326.833 49.129,326.718 49.169,325.792 49.188 C 323.982 49.226,323.751 49.257,323.729 49.464 C 323.718 49.576,323.699 49.737,323.688 49.824 C 323.676 49.910,323.348 50.004,322.958 50.032 C 322.369 50.075,322.241 50.147,322.197 50.458 C 322.150 50.789,322.047 50.833,321.327 50.833 C 320.672 50.833,320.529 50.882,320.606 51.082 C 320.727 51.397,320.419 51.518,319.144 51.655 C 319.085 51.661,319.047 51.798,319.060 51.958 C 319.075 52.143,318.946 52.269,318.708 52.303 C 318.381 52.350,318.245 52.605,318.314 53.042 C 318.324 53.110,318.146 53.167,317.917 53.167 C 317.581 53.167,317.500 53.249,317.500 53.593 C 317.500 53.828,317.432 53.978,317.348 53.926 C 317.061 53.748,316.667 54.037,316.667 54.425 C 316.667 54.726,316.590 54.799,316.329 54.749 C 316.143 54.713,316.035 54.755,316.089 54.842 C 316.142 54.929,316.128 55.094,316.056 55.208 C 315.984 55.323,315.916 55.492,315.905 55.583 C 315.893 55.675,315.873 55.839,315.859 55.947 C 315.845 56.056,315.683 56.192,315.500 56.250 C 315.234 56.334,315.167 56.502,315.167 57.076 C 315.167 57.699,315.112 57.811,314.765 57.898 L 314.363 57.999 314.342 62.411 L 314.320 66.824 314.743 66.930 C 315.118 67.024,315.167 67.122,315.167 67.784 C 315.167 68.379,315.231 68.548,315.485 68.614 C 315.809 68.699,315.994 69.122,315.998 69.792 C 315.999 70.047,316.100 70.167,316.314 70.167 C 316.488 70.167,316.667 70.316,316.715 70.500 C 316.767 70.699,316.942 70.833,317.151 70.833 C 317.412 70.833,317.500 70.938,317.500 71.250 C 317.500 71.554,317.589 71.667,317.830 71.667 C 318.041 71.667,318.197 71.813,318.262 72.074 C 318.325 72.322,318.505 72.501,318.724 72.532 C 318.960 72.566,319.067 72.683,319.034 72.875 C 318.998 73.089,319.098 73.167,319.409 73.167 C 319.721 73.167,319.833 73.254,319.833 73.497 C 319.833 73.823,320.070 73.932,321.000 74.037 C 321.293 74.070,321.402 74.171,321.367 74.378 C 321.340 74.540,321.377 74.662,321.450 74.650 C 321.524 74.637,321.640 74.645,321.708 74.668 C 322.023 74.770,322.216 74.793,322.917 74.813 C 323.549 74.830,323.667 74.886,323.667 75.167 C 323.667 75.493,323.778 75.500,329.083 75.500 C 334.347 75.500,334.500 75.491,334.500 75.174 C 334.500 74.888,334.637 74.843,335.625 74.799 C 336.638 74.755,336.755 74.714,336.802 74.384 C 336.845 74.084,336.979 74.009,337.552 73.967 C 338.130 73.925,338.259 73.852,338.303 73.542 C 338.354 73.182,338.662 73.085,339.628 73.122 C 339.745 73.127,339.820 73.013,339.795 72.868 C 339.767 72.706,339.910 72.567,340.167 72.504 C 340.428 72.441,340.603 72.266,340.637 72.035 C 340.675 71.771,340.804 71.667,341.095 71.667 C 341.495 71.667,341.500 71.684,341.500 73.250 L 341.500 74.833 346.500 74.833 L 351.500 74.833 351.500 59.930 C 351.500 44.826,351.489 44.451,351.070 44.612 C 350.882 44.684,350.833 44.496,350.833 43.696 C 350.833 42.701,350.517 42.033,350.153 42.258 C 350.069 42.311,350.000 42.014,350.000 41.596 C 350.000 40.928,349.951 40.827,349.583 40.735 C 349.263 40.655,349.167 40.523,349.167 40.162 C 349.167 39.527,349.011 39.167,348.735 39.167 C 348.609 39.167,348.459 38.979,348.402 38.750 C 348.336 38.489,348.179 38.333,347.982 38.333 C 347.778 38.333,347.667 38.216,347.667 38.000 C 347.667 37.756,347.556 37.667,347.250 37.667 C 346.917 37.667,346.833 37.583,346.833 37.250 C 346.833 36.946,346.744 36.833,346.503 36.833 C 346.290 36.833,346.136 36.686,346.068 36.417 C 346.003 36.156,345.846 36.000,345.649 36.000 C 345.444 36.000,345.333 35.883,345.333 35.667 C 345.333 35.383,345.222 35.333,344.583 35.333 C 343.894 35.333,343.833 35.299,343.833 34.917 C 343.833 34.528,343.778 34.500,343.000 34.500 C 342.222 34.500,342.167 34.472,342.167 34.083 C 342.167 33.854,342.110 33.676,342.042 33.686 C 341.169 33.824,340.011 33.632,339.917 33.333 C 339.813 33.008,339.664 33.000,333.723 33.000 C 327.776 33.000,327.633 33.008,327.548 33.333 M357.833 34.828 C 357.833 35.879,357.867 36.000,358.159 36.000 C 358.441 36.000,358.491 36.137,358.534 37.042 C 358.576 37.937,358.636 38.106,358.958 38.248 C 359.263 38.381,359.333 38.546,359.333 39.123 C 359.333 39.720,359.386 39.833,359.663 39.833 C 359.969 39.833,360.238 40.340,360.157 40.761 C 360.039 41.375,360.198 41.987,360.500 42.083 C 360.753 42.164,360.834 42.337,360.836 42.803 C 360.839 43.544,360.987 43.801,361.375 43.741 C 361.619 43.703,361.667 43.829,361.667 44.515 C 361.667 45.258,361.702 45.333,362.051 45.333 C 362.358 45.333,362.436 45.426,362.440 45.792 C 362.457 47.325,362.502 47.532,362.833 47.618 C 363.067 47.679,363.167 47.846,363.167 48.172 C 363.167 48.857,363.328 49.167,363.684 49.167 C 363.949 49.167,364.003 49.301,364.021 50.000 C 364.032 50.458,364.060 50.908,364.083 51.000 C 364.106 51.092,364.134 51.242,364.146 51.333 C 364.157 51.425,364.279 51.500,364.417 51.500 C 364.669 51.500,364.690 51.555,364.736 52.367 C 364.763 52.855,364.918 53.083,365.222 53.083 C 365.336 53.083,365.438 53.412,365.467 53.875 C 365.513 54.590,365.558 54.667,365.926 54.667 C 366.316 54.667,366.333 54.713,366.333 55.739 C 366.333 56.664,366.379 56.825,366.667 56.917 C 366.865 56.980,367.001 57.170,367.002 57.386 C 367.007 58.080,367.201 58.500,367.519 58.500 C 367.784 58.500,367.837 58.638,367.859 59.375 C 367.873 59.856,367.892 60.362,367.901 60.500 C 367.910 60.637,368.068 60.750,368.251 60.750 C 368.529 60.750,368.592 60.879,368.634 61.542 C 368.676 62.197,368.741 62.333,369.009 62.333 C 369.261 62.333,369.336 62.454,369.345 62.875 C 369.358 63.484,369.536 64.031,369.715 64.012 C 369.780 64.006,369.908 64.000,370.000 64.000 C 370.092 64.000,370.167 64.433,370.167 64.967 C 370.167 65.960,370.366 66.374,370.770 66.219 C 370.945 66.152,371.000 66.317,371.000 66.914 C 371.000 67.558,371.060 67.713,371.333 67.785 C 371.616 67.859,371.847 69.066,371.639 69.375 C 371.522 69.547,372.051 70.137,372.253 70.059 C 372.451 69.983,372.500 70.131,372.500 70.816 C 372.500 71.284,372.556 71.658,372.625 71.647 C 373.212 71.554,373.333 71.686,373.333 72.417 C 373.333 73.056,373.383 73.167,373.667 73.167 C 373.970 73.167,374.000 73.278,374.000 74.417 C 374.000 75.104,373.944 75.658,373.875 75.647 C 373.463 75.582,373.347 75.739,373.301 76.419 C 373.273 76.833,373.207 77.152,373.155 77.128 C 372.925 77.021,372.500 77.688,372.500 78.155 C 372.500 78.590,372.437 78.667,372.083 78.667 C 371.750 78.667,371.667 78.750,371.667 79.083 C 371.667 79.433,371.588 79.500,371.180 79.500 C 370.526 79.500,370.167 79.654,370.167 79.934 C 370.167 80.120,369.768 80.167,368.185 80.167 C 366.400 80.167,366.206 80.138,366.227 79.875 C 366.246 79.629,366.056 79.569,365.000 79.488 C 364.313 79.436,363.809 79.380,363.881 79.363 C 364.236 79.282,363.631 78.716,363.174 78.703 C 362.707 78.690,362.199 79.144,362.427 79.372 C 362.582 79.526,362.175 80.333,361.943 80.333 C 361.815 80.333,361.711 80.465,361.711 80.625 C 361.720 82.990,361.671 83.309,361.292 83.363 C 360.931 83.415,360.915 83.491,360.870 85.292 L 360.822 87.167 361.312 87.167 C 361.720 87.167,361.788 87.223,361.715 87.500 C 361.667 87.683,361.712 87.843,361.814 87.854 C 361.916 87.866,362.075 87.894,362.167 87.917 C 362.258 87.940,362.742 87.968,363.240 87.979 C 364.045 87.998,364.140 88.037,364.085 88.325 C 364.024 88.641,364.163 88.650,369.429 88.662 C 372.403 88.669,374.827 88.617,374.815 88.546 C 374.742 88.101,374.884 88.000,375.583 88.000 C 376.272 88.000,376.333 87.966,376.333 87.583 C 376.333 87.201,376.394 87.167,377.083 87.167 C 377.772 87.167,377.833 87.133,377.833 86.750 C 377.833 86.417,377.917 86.333,378.250 86.333 C 378.556 86.333,378.667 86.244,378.667 86.000 C 378.667 85.756,378.778 85.667,379.083 85.667 C 379.313 85.667,379.491 85.610,379.480 85.542 C 379.409 85.092,379.538 84.833,379.833 84.833 C 380.052 84.833,380.167 84.722,380.167 84.512 C 380.167 84.305,380.301 84.171,380.542 84.137 C 380.777 84.103,380.936 83.949,380.968 83.724 C 380.999 83.506,381.178 83.325,381.425 83.263 C 381.649 83.207,381.823 83.106,381.813 83.039 C 381.761 82.702,381.864 82.531,382.167 82.452 C 382.430 82.383,382.500 82.224,382.500 81.700 C 382.500 81.131,382.559 81.021,382.917 80.932 C 383.283 80.840,383.333 80.737,383.333 80.085 C 383.333 79.519,383.388 79.365,383.566 79.433 C 383.695 79.482,383.863 79.424,383.941 79.303 C 384.092 79.070,384.103 78.989,384.142 77.875 C 384.163 77.286,384.223 77.167,384.500 77.167 C 384.789 77.167,384.833 77.056,384.833 76.333 C 384.833 75.556,384.861 75.500,385.250 75.500 C 385.479 75.500,385.658 75.444,385.647 75.375 C 385.475 74.284,385.695 73.167,386.083 73.167 C 386.466 73.167,386.500 73.106,386.500 72.417 C 386.500 71.778,386.549 71.667,386.833 71.667 C 387.135 71.667,387.167 71.556,387.167 70.512 C 387.167 69.441,387.194 69.353,387.542 69.303 C 387.863 69.258,387.924 69.134,387.968 68.444 C 388.008 67.815,388.073 67.659,388.265 67.733 C 388.586 67.856,388.833 67.205,388.833 66.239 C 388.833 65.611,388.883 65.500,389.167 65.500 C 389.350 65.500,389.491 65.444,389.480 65.375 C 389.352 64.561,389.530 63.852,389.875 63.803 C 390.081 63.774,390.257 63.637,390.266 63.500 C 390.275 63.362,390.294 62.894,390.308 62.458 C 390.326 61.886,390.401 61.667,390.577 61.667 C 390.780 61.667,391.289 61.014,391.195 60.875 C 390.975 60.550,391.216 59.333,391.500 59.333 C 391.789 59.333,391.833 59.222,391.833 58.500 C 391.833 57.733,391.865 57.667,392.231 57.667 C 392.450 57.667,392.626 57.573,392.622 57.458 C 392.567 55.976,392.681 55.333,393.000 55.333 C 393.284 55.333,393.333 55.222,393.333 54.583 C 393.333 53.894,393.367 53.833,393.750 53.833 C 394.154 53.833,394.167 53.799,394.167 52.678 C 394.167 51.607,394.194 51.519,394.542 51.470 C 394.853 51.426,394.925 51.297,394.968 50.708 C 395.014 50.072,395.137 49.916,395.542 49.980 C 395.610 49.991,395.667 49.475,395.667 48.833 C 395.667 47.700,395.679 47.667,396.083 47.667 C 396.464 47.667,396.500 47.604,396.500 46.936 C 396.500 46.354,396.579 46.153,396.890 45.950 C 397.207 45.742,397.285 45.533,397.310 44.825 C 397.343 43.900,397.438 43.609,397.661 43.746 C 397.850 43.864,398.000 43.418,398.000 42.736 C 398.000 42.347,398.077 42.167,398.244 42.167 C 398.614 42.167,398.833 41.615,398.833 40.689 C 398.833 39.953,398.877 39.850,399.208 39.803 C 399.545 39.755,399.588 39.644,399.633 38.708 C 399.660 38.135,399.754 37.667,399.841 37.667 C 399.933 37.667,400.000 36.820,400.000 35.662 L 400.000 33.658 395.074 33.672 C 390.021 33.686,389.500 33.755,389.500 34.417 C 389.500 34.462,389.500 34.845,389.500 35.266 C 389.500 35.891,389.439 36.047,389.167 36.118 C 388.878 36.194,388.833 36.346,388.833 37.251 C 388.833 38.228,388.806 38.304,388.417 38.402 C 388.026 38.500,388.000 38.573,388.000 39.587 C 388.000 40.547,387.964 40.667,387.674 40.667 C 387.358 40.667,387.308 40.799,387.108 42.167 C 387.088 42.304,386.943 42.395,386.786 42.368 C 386.538 42.325,386.500 42.478,386.500 43.520 C 386.500 44.181,386.453 44.675,386.395 44.617 C 386.051 44.273,385.680 44.883,385.633 45.870 C 385.591 46.739,385.530 46.917,385.250 46.993 C 384.973 47.068,384.907 47.252,384.858 48.083 C 384.790 49.237,384.745 49.353,384.411 49.225 C 384.216 49.150,384.167 49.302,384.167 49.982 C 384.167 50.508,384.094 50.833,383.977 50.833 C 383.605 50.833,383.344 51.430,383.339 52.292 C 383.334 53.054,383.290 53.167,383.000 53.167 C 382.817 53.167,382.659 53.223,382.649 53.292 C 382.609 53.569,382.542 54.449,382.522 54.958 C 382.505 55.382,382.427 55.500,382.167 55.500 C 381.865 55.500,381.833 55.611,381.833 56.667 C 381.833 57.800,381.821 57.833,381.417 57.833 C 381.028 57.833,381.000 57.890,381.000 58.657 C 381.000 59.369,380.958 59.473,380.692 59.421 C 380.458 59.376,380.378 59.470,380.360 59.806 C 380.348 60.050,380.305 60.400,380.265 60.583 C 380.225 60.767,380.186 61.085,380.179 61.292 C 380.155 62.013,379.500 61.773,379.497 61.042 C 379.495 60.431,379.319 59.957,379.106 59.986 C 378.725 60.037,378.667 59.896,378.667 58.917 C 378.667 57.872,378.652 57.833,378.250 57.833 C 377.861 57.833,377.833 57.778,377.833 57.000 C 377.833 56.542,377.777 56.176,377.708 56.186 C 377.266 56.256,377.179 56.096,377.133 55.125 C 377.090 54.230,377.031 54.060,376.708 53.919 C 376.377 53.773,376.333 53.633,376.333 52.710 C 376.333 51.679,376.275 51.581,375.708 51.654 C 375.565 51.673,375.500 51.413,375.500 50.823 C 375.500 50.119,375.454 49.982,375.244 50.063 C 374.931 50.183,374.875 50.028,374.768 48.750 C 374.722 48.200,374.680 47.740,374.676 47.727 C 374.671 47.714,374.535 47.714,374.375 47.727 C 374.145 47.745,374.072 47.595,374.031 47.023 C 373.992 46.470,373.902 46.276,373.656 46.212 C 373.396 46.144,373.329 45.969,373.313 45.314 C 373.301 44.866,373.273 44.425,373.250 44.333 C 373.227 44.242,373.199 44.092,373.188 44.000 C 373.176 43.908,373.110 43.842,373.042 43.853 C 372.600 43.923,372.500 43.781,372.500 43.083 C 372.500 42.394,372.466 42.333,372.083 42.333 C 371.679 42.333,371.667 42.300,371.667 41.167 C 371.667 40.111,371.635 40.000,371.333 40.000 C 371.050 40.000,371.000 39.889,371.000 39.261 C 371.000 38.342,370.755 37.667,370.421 37.667 C 370.231 37.667,370.167 37.478,370.167 36.920 C 370.167 36.262,370.117 36.161,369.750 36.068 C 369.371 35.973,369.333 35.884,369.333 35.079 C 369.333 33.570,369.849 33.693,363.487 33.673 L 357.833 33.655 357.833 34.828 M30.076 34.011 C 30.021 34.101,30.037 34.164,30.113 34.151 C 30.459 34.091,30.475 34.192,30.166 34.501 C 29.653 35.013,29.746 37.075,30.283 37.102 C 30.747 37.125,30.769 37.035,30.700 35.388 C 30.645 34.093,30.383 33.515,30.076 34.011 M47.042 36.122 C 46.575 36.285,46.771 39.000,47.250 39.000 C 47.661 39.000,47.667 38.982,47.667 37.601 C 47.667 36.205,47.556 35.942,47.042 36.122 M29.417 37.895 C 29.208 38.147,29.172 38.318,29.125 39.297 C 29.100 39.802,28.982 40.173,28.794 40.333 C 28.634 40.471,28.480 40.733,28.453 40.917 C 28.384 41.383,28.013 41.996,28.000 41.667 C 27.989 41.387,27.623 41.914,27.562 42.300 C 27.493 42.727,28.246 42.435,28.334 42.000 C 28.389 41.728,28.549 41.565,28.793 41.530 C 29.098 41.487,29.167 41.371,29.167 40.901 C 29.167 40.446,29.251 40.293,29.567 40.173 C 29.939 40.031,29.963 39.949,29.911 38.988 C 29.852 37.904,29.696 37.559,29.417 37.895 M47.651 39.238 C 47.353 39.536,47.730 40.833,48.115 40.833 C 48.506 40.833,48.524 40.794,48.432 40.135 C 48.329 39.402,47.937 38.952,47.651 39.238 M48.370 41.681 C 48.331 42.247,48.380 42.377,48.662 42.450 C 48.848 42.499,49.000 42.640,49.000 42.764 C 49.000 43.014,49.568 43.377,49.720 43.224 C 49.773 43.171,49.866 43.321,49.925 43.558 C 49.985 43.795,50.082 43.983,50.142 43.975 C 50.625 43.911,50.795 44.027,50.708 44.360 C 50.629 44.663,50.670 44.705,50.974 44.625 C 51.257 44.551,51.357 44.620,51.438 44.942 C 51.506 45.213,51.624 45.321,51.784 45.260 C 51.918 45.209,52.096 45.167,52.180 45.167 C 52.264 45.167,52.333 45.087,52.333 44.990 C 52.333 44.893,52.258 44.860,52.167 44.917 C 52.075 44.973,51.999 44.921,51.997 44.802 C 51.996 44.643,51.950 44.651,51.831 44.833 C 51.694 45.042,51.650 45.021,51.564 44.708 C 51.507 44.502,51.357 44.333,51.231 44.333 C 51.104 44.333,51.000 44.221,51.000 44.083 C 51.000 43.946,50.925 43.833,50.833 43.833 C 50.742 43.833,50.667 43.688,50.667 43.511 C 50.667 43.334,50.517 43.142,50.333 43.083 C 50.031 42.987,49.926 42.802,49.980 42.458 C 49.991 42.390,49.813 42.333,49.583 42.333 C 49.273 42.333,49.167 42.245,49.167 41.989 C 49.167 40.955,48.439 40.674,48.370 41.681 M166.363 42.542 C 166.408 42.852,166.536 42.925,167.115 42.967 C 167.687 43.009,167.822 43.084,167.865 43.384 C 167.907 43.684,168.042 43.759,168.608 43.800 C 169.128 43.838,169.320 43.931,169.384 44.175 C 169.433 44.362,169.612 44.500,169.806 44.500 C 170.029 44.500,170.162 44.627,170.197 44.875 C 170.231 45.116,170.384 45.269,170.625 45.303 C 170.896 45.342,171.000 45.468,171.000 45.762 C 171.000 46.056,171.091 46.167,171.333 46.167 C 171.556 46.167,171.667 46.278,171.667 46.500 C 171.667 46.742,171.778 46.833,172.074 46.833 C 172.442 46.833,172.487 46.910,172.533 47.625 C 172.576 48.301,172.638 48.424,172.958 48.470 C 173.276 48.515,173.333 48.625,173.333 49.194 C 173.333 49.724,173.403 49.883,173.667 49.952 C 173.968 50.031,174.000 50.179,174.000 51.516 C 174.000 52.953,174.011 52.997,174.417 53.098 C 175.071 53.262,175.064 55.500,174.409 55.500 C 174.167 55.500,173.997 55.589,174.012 55.708 C 174.163 56.870,173.974 58.468,173.677 58.546 C 173.432 58.610,173.342 58.804,173.302 59.357 C 173.262 59.919,173.186 60.078,172.968 60.062 C 172.796 60.049,172.620 60.228,172.518 60.520 C 172.426 60.784,172.242 61.000,172.110 61.000 C 171.977 61.000,171.824 61.116,171.770 61.259 C 171.715 61.402,171.741 61.473,171.830 61.419 C 171.918 61.365,171.886 61.567,171.759 61.868 C 171.632 62.170,171.428 62.417,171.306 62.417 C 171.183 62.417,171.060 62.581,171.031 62.781 C 170.999 63.009,170.842 63.166,170.615 63.198 C 170.384 63.231,170.230 63.388,170.197 63.625 C 170.162 63.873,170.029 64.000,169.806 64.000 C 169.609 64.000,169.433 64.139,169.382 64.333 C 169.328 64.540,169.143 64.675,168.897 64.688 C 168.679 64.699,168.425 64.727,168.333 64.750 C 168.242 64.773,168.088 64.801,167.993 64.813 C 167.897 64.824,167.841 64.965,167.868 65.125 C 167.907 65.357,167.764 65.434,167.167 65.500 C 166.546 65.569,166.407 65.648,166.363 65.958 C 166.310 66.332,166.300 66.333,163.155 66.333 L 160.000 66.333 160.000 65.917 C 160.000 65.534,159.939 65.500,159.250 65.500 C 158.611 65.500,158.500 65.451,158.500 65.167 C 158.500 64.983,158.425 64.824,158.333 64.813 C 158.242 64.801,158.089 64.782,157.994 64.771 C 157.768 64.744,157.499 64.303,157.604 64.133 C 157.649 64.060,157.344 64.000,156.927 64.000 C 156.227 64.000,156.167 63.967,156.167 63.583 C 156.167 63.286,156.076 63.167,155.853 63.167 C 155.675 63.167,155.500 63.016,155.448 62.821 C 155.399 62.631,155.203 62.435,155.012 62.385 C 154.812 62.332,154.656 62.145,154.641 61.939 C 154.627 61.743,154.608 61.478,154.599 61.350 C 154.589 61.221,154.434 61.064,154.253 61.001 C 154.072 60.938,153.880 60.705,153.826 60.485 C 153.763 60.227,153.627 60.101,153.447 60.132 C 153.234 60.170,153.162 60.049,153.147 59.632 C 153.113 58.647,153.088 58.584,152.708 58.530 C 152.351 58.479,152.333 58.405,152.333 56.988 C 152.333 56.170,152.277 55.509,152.208 55.520 C 151.570 55.621,151.500 55.506,151.500 54.360 C 151.500 53.306,151.531 53.206,151.917 53.030 C 152.313 52.850,152.333 52.773,152.333 51.432 C 152.333 50.098,152.353 50.020,152.708 49.970 C 153.018 49.926,153.092 49.797,153.134 49.225 C 153.172 48.706,153.265 48.513,153.509 48.449 C 153.771 48.381,153.833 48.217,153.833 47.599 C 153.833 46.893,153.866 46.833,154.250 46.833 C 154.547 46.833,154.667 46.743,154.667 46.519 C 154.667 46.342,154.817 46.166,155.012 46.115 C 155.203 46.065,155.399 45.869,155.448 45.679 C 155.500 45.484,155.675 45.333,155.853 45.333 C 156.076 45.333,156.167 45.214,156.167 44.917 C 156.167 44.583,156.250 44.500,156.583 44.500 C 156.889 44.500,157.000 44.411,157.000 44.167 C 157.000 43.909,157.111 43.833,157.486 43.833 C 158.190 43.833,158.500 43.675,158.500 43.316 C 158.500 43.053,158.625 43.000,159.250 43.000 C 159.939 43.000,160.000 42.966,160.000 42.583 L 160.000 42.167 163.155 42.167 C 166.300 42.167,166.310 42.168,166.363 42.542 M289.604 42.458 C 289.650 42.918,289.675 42.963,289.875 42.955 C 291.255 42.904,291.833 43.015,291.833 43.330 C 291.833 43.542,291.980 43.697,292.244 43.763 C 292.470 43.820,292.700 44.009,292.755 44.183 C 292.811 44.357,293.001 44.500,293.178 44.500 C 293.383 44.500,293.500 44.615,293.500 44.817 C 293.500 45.025,293.687 45.199,294.042 45.323 C 294.464 45.470,294.530 45.545,294.339 45.663 C 294.144 45.784,294.186 45.849,294.547 45.986 C 294.796 46.081,295.000 46.261,295.000 46.386 C 295.000 46.511,295.191 46.700,295.424 46.806 C 295.685 46.925,295.829 47.112,295.799 47.291 C 295.766 47.486,295.875 47.601,296.125 47.637 C 296.448 47.683,296.500 47.790,296.500 48.417 C 296.500 49.378,296.749 50.022,297.072 49.898 C 297.281 49.818,297.329 50.068,297.369 51.443 C 297.407 52.769,297.465 53.083,297.667 53.083 C 297.861 53.083,297.927 53.350,297.966 54.292 C 298.011 55.413,297.990 55.500,297.674 55.500 C 297.355 55.500,297.333 55.600,297.333 57.083 C 297.333 58.520,297.304 58.667,297.021 58.667 C 296.686 58.667,296.500 59.236,296.500 60.259 C 296.500 60.704,296.428 60.820,296.125 60.863 C 295.874 60.899,295.766 61.013,295.799 61.210 C 295.831 61.396,295.694 61.561,295.424 61.664 C 295.191 61.752,295.000 61.941,295.000 62.083 C 295.000 62.225,294.814 62.412,294.587 62.499 C 294.340 62.592,294.208 62.747,294.260 62.882 C 294.310 63.014,294.171 63.187,293.923 63.300 C 293.690 63.406,293.500 63.599,293.500 63.728 C 293.500 63.858,293.313 64.011,293.083 64.068 C 292.854 64.126,292.667 64.284,292.667 64.420 C 292.667 64.556,292.518 64.667,292.337 64.667 C 292.123 64.667,291.969 64.814,291.902 65.083 C 291.799 65.491,291.327 65.599,289.875 65.545 C 289.670 65.537,289.601 65.717,289.654 66.125 C 289.675 66.285,289.013 66.333,286.823 66.333 C 284.463 66.333,283.980 66.293,284.052 66.104 C 284.191 65.742,283.823 65.500,283.133 65.500 C 282.688 65.500,282.500 65.427,282.500 65.256 C 282.500 65.054,281.847 64.545,281.708 64.639 C 281.459 64.807,281.000 64.609,281.000 64.333 C 281.000 64.089,280.889 64.000,280.583 64.000 C 280.279 64.000,280.167 63.911,280.167 63.670 C 280.167 63.461,280.021 63.303,279.769 63.240 C 279.485 63.169,279.394 63.052,279.452 62.834 C 279.510 62.610,279.427 62.512,279.141 62.472 C 278.884 62.436,278.732 62.288,278.697 62.042 C 278.658 61.770,278.532 61.667,278.238 61.667 C 277.871 61.667,277.833 61.599,277.833 60.936 C 277.833 60.346,277.769 60.189,277.500 60.118 C 277.232 60.048,277.163 59.881,277.146 59.266 C 277.114 58.107,277.110 58.095,276.708 57.919 C 276.151 57.674,276.111 50.667,276.667 50.667 C 276.850 50.667,277.009 50.592,277.021 50.500 C 277.032 50.408,277.060 50.258,277.083 50.167 C 277.106 50.075,277.134 49.625,277.146 49.167 C 277.157 48.708,277.223 48.342,277.292 48.353 C 277.733 48.423,277.833 48.281,277.833 47.583 C 277.833 46.894,277.867 46.833,278.250 46.833 C 278.588 46.833,278.667 46.751,278.667 46.399 C 278.667 46.091,278.736 45.991,278.904 46.056 C 279.145 46.148,279.570 45.792,279.410 45.632 C 279.362 45.584,279.513 45.421,279.745 45.269 C 279.977 45.117,280.167 44.882,280.167 44.746 C 280.167 44.611,280.312 44.500,280.489 44.500 C 280.666 44.500,280.857 44.355,280.913 44.177 C 280.970 44.000,281.181 43.831,281.383 43.802 C 281.616 43.769,281.769 43.613,281.803 43.375 C 281.852 43.031,281.944 43.000,282.928 43.000 C 283.518 43.000,284.009 42.925,284.021 42.833 C 284.032 42.742,284.060 42.592,284.083 42.500 C 284.106 42.408,284.134 42.294,284.146 42.246 C 284.195 42.041,289.583 42.250,289.604 42.458 M26.979 43.098 C 26.968 43.136,26.949 43.258,26.938 43.370 C 26.926 43.482,26.732 43.665,26.507 43.778 C 26.282 43.890,26.037 44.144,25.964 44.342 C 25.886 44.553,25.736 44.665,25.601 44.613 C 25.440 44.552,25.377 44.648,25.393 44.929 C 25.423 45.442,26.000 45.501,26.000 44.990 C 26.000 44.801,26.076 44.694,26.168 44.751 C 26.503 44.958,27.000 44.652,27.000 44.239 C 27.000 43.954,27.093 43.833,27.311 43.833 C 27.719 43.833,27.702 43.132,27.292 43.072 C 27.131 43.049,26.991 43.060,26.979 43.098 M23.942 45.639 C 23.641 45.971,23.727 46.167,24.175 46.167 C 24.348 46.167,24.493 46.002,24.541 45.750 C 24.636 45.252,24.342 45.197,23.942 45.639 M52.295 45.765 C 52.375 46.183,52.883 46.324,53.092 45.985 C 53.233 45.758,52.996 45.512,52.555 45.427 C 52.278 45.374,52.232 45.433,52.295 45.765 M22.404 46.416 C 22.111 46.760,22.168 47.000,22.542 46.997 C 23.017 46.994,23.244 46.828,23.273 46.462 C 23.298 46.137,22.668 46.104,22.404 46.416 M53.632 46.617 C 53.713 47.037,54.669 47.199,54.664 46.792 C 54.659 46.394,54.394 46.165,53.978 46.200 C 53.638 46.228,53.573 46.306,53.632 46.617 M20.317 47.197 C 20.124 47.558,20.126 47.712,20.321 47.591 C 20.406 47.539,20.676 47.588,20.922 47.700 C 21.398 47.916,21.905 47.549,21.737 47.109 C 21.619 46.802,20.491 46.872,20.317 47.197 M55.551 47.117 C 55.595 47.319,55.545 47.519,55.441 47.562 C 55.336 47.605,55.794 47.646,56.458 47.654 C 57.620 47.666,57.655 47.655,57.375 47.366 C 57.215 47.200,57.038 47.132,56.982 47.213 C 56.926 47.295,56.834 47.243,56.779 47.098 C 56.694 46.878,56.607 46.868,56.244 47.033 C 55.891 47.194,55.778 47.186,55.640 46.991 C 55.509 46.804,55.489 46.833,55.551 47.117 M17.125 47.787 C 16.965 47.826,16.833 48.002,16.833 48.179 C 16.833 48.712,19.097 48.659,19.200 48.123 C 19.272 47.745,18.085 47.552,17.125 47.787 M58.321 47.790 C 58.314 47.860,58.283 48.048,58.252 48.208 C 58.204 48.457,58.329 48.500,59.098 48.500 C 59.981 48.500,60.187 48.345,59.872 47.916 C 59.728 47.719,58.339 47.606,58.321 47.790 M13.827 48.846 C 13.637 49.200,13.789 49.264,14.958 49.318 C 15.802 49.357,15.833 49.342,15.833 48.920 C 15.833 48.370,14.116 48.306,13.827 48.846 M61.287 48.826 C 61.238 49.013,61.261 49.128,61.337 49.081 C 61.414 49.033,61.524 49.071,61.582 49.164 C 61.818 49.546,63.194 49.364,63.137 48.958 C 63.059 48.412,61.426 48.295,61.287 48.826 M10.786 49.333 C 10.464 49.466,10.466 49.953,10.789 50.030 C 11.566 50.214,12.865 49.972,12.783 49.658 C 12.732 49.463,12.803 49.330,12.976 49.293 C 13.127 49.261,12.741 49.238,12.119 49.242 C 11.497 49.247,10.897 49.288,10.786 49.333 M64.490 49.639 C 64.600 50.048,64.669 50.079,65.347 50.027 C 66.740 49.919,66.621 49.313,65.192 49.238 C 64.375 49.195,64.370 49.198,64.490 49.639 M7.861 50.173 C 7.153 50.464,7.547 50.747,8.734 50.800 C 9.824 50.848,9.857 50.837,9.804 50.466 C 9.743 50.034,8.614 49.864,7.861 50.173 M67.292 50.122 C 67.131 50.160,67.000 50.265,67.000 50.355 C 67.000 50.446,67.094 50.463,67.208 50.395 C 67.350 50.309,67.343 50.360,67.188 50.551 C 66.977 50.811,67.052 50.833,68.146 50.833 C 69.278 50.833,69.333 50.815,69.333 50.445 C 69.333 50.056,68.274 49.888,67.292 50.122 M4.814 50.958 C 4.803 51.027,4.803 51.140,4.814 51.208 C 4.824 51.277,4.766 51.315,4.683 51.292 C 4.601 51.269,4.525 51.319,4.515 51.404 C 4.489 51.616,6.606 51.734,6.733 51.528 C 7.001 51.095,6.624 50.833,5.732 50.833 C 5.238 50.833,4.824 50.890,4.814 50.958 M70.500 51.270 C 70.500 51.699,70.515 51.705,71.430 51.618 C 72.469 51.519,72.584 51.459,72.442 51.091 C 72.246 50.578,70.500 50.739,70.500 51.270 M2.123 51.716 C 1.987 51.814,2.030 51.831,2.250 51.765 C 2.559 51.673,2.562 51.683,2.294 51.891 C 1.980 52.136,2.067 52.334,2.486 52.332 C 2.631 52.331,2.830 52.159,2.927 51.949 C 3.118 51.536,2.585 51.381,2.123 51.716 M73.417 51.624 C 72.916 52.002,73.209 52.333,74.042 52.333 C 74.642 52.333,74.944 52.251,75.107 52.042 C 75.323 51.764,75.329 51.764,75.233 52.042 C 75.177 52.202,75.207 52.333,75.301 52.333 C 75.463 52.333,75.480 51.923,75.324 51.770 C 75.175 51.624,73.578 51.502,73.417 51.624 M75.936 52.759 C 75.882 52.901,75.903 52.976,75.984 52.926 C 76.233 52.773,76.333 53.299,76.333 54.750 C 76.333 55.710,76.269 56.162,76.125 56.213 C 76.004 56.257,75.979 56.350,76.064 56.436 C 76.150 56.521,76.243 56.496,76.287 56.375 C 76.328 56.260,76.542 56.167,76.764 56.167 C 77.432 56.167,77.301 53.068,76.615 52.631 C 76.300 52.431,76.044 52.479,75.936 52.759 M0.000 54.667 C 0.000 55.773,0.056 56.167,0.213 56.167 C 0.330 56.167,0.554 56.317,0.711 56.500 C 0.868 56.683,1.082 56.833,1.185 56.833 C 1.324 56.833,1.325 56.774,1.189 56.610 C 1.086 56.487,1.045 56.344,1.096 56.293 C 1.147 56.242,1.053 56.211,0.886 56.225 C 0.617 56.247,0.578 56.080,0.535 54.708 C 0.466 52.481,0.000 52.445,0.000 54.667 M334.530 56.542 C 334.582 56.907,334.642 56.918,336.857 56.963 C 338.959 57.006,339.137 57.034,339.216 57.338 C 339.291 57.623,339.447 57.667,340.401 57.667 L 341.500 57.667 341.500 59.667 C 341.500 61.735,341.479 61.795,340.792 61.686 C 340.723 61.676,340.667 62.004,340.667 62.417 C 340.667 63.056,340.617 63.167,340.333 63.167 C 340.089 63.167,340.000 63.278,340.000 63.583 C 340.000 63.813,339.920 64.000,339.821 64.000 C 339.591 64.000,339.167 64.424,339.167 64.655 C 339.167 64.753,339.025 64.833,338.853 64.833 C 338.679 64.833,338.500 64.982,338.452 65.167 C 338.400 65.366,338.224 65.500,338.016 65.500 C 337.757 65.500,337.667 65.605,337.667 65.908 C 337.667 66.275,337.590 66.320,336.875 66.366 C 336.341 66.400,336.097 66.486,336.127 66.630 C 336.185 66.920,335.952 66.978,334.500 67.035 C 333.387 67.078,333.232 67.125,333.085 67.458 C 332.847 68.001,330.500 68.039,330.500 67.500 C 330.500 67.317,330.387 67.157,330.250 67.146 C 330.112 67.134,329.925 67.106,329.833 67.083 C 329.742 67.060,329.317 67.032,328.889 67.021 C 328.461 67.009,328.160 66.951,328.221 66.890 C 328.455 66.656,327.928 66.333,327.313 66.333 C 326.735 66.333,326.667 66.289,326.667 65.917 C 326.667 65.611,326.578 65.500,326.333 65.500 C 326.117 65.500,326.000 65.389,326.000 65.185 C 326.000 64.987,325.844 64.830,325.583 64.765 C 325.193 64.667,325.167 64.593,325.167 63.580 C 325.167 62.600,325.135 62.500,324.822 62.500 C 324.545 62.500,324.488 62.411,324.531 62.042 C 324.562 61.769,324.685 61.583,324.833 61.583 C 325.013 61.583,325.098 61.362,325.134 60.792 C 325.176 60.136,325.241 60.000,325.509 60.000 C 325.687 60.000,325.843 59.925,325.854 59.833 C 325.866 59.742,325.894 59.592,325.917 59.500 C 325.940 59.408,325.968 59.150,325.979 58.926 C 325.997 58.572,326.090 58.513,326.693 58.468 C 327.217 58.429,327.397 58.341,327.431 58.110 C 327.491 57.694,327.498 57.690,328.287 57.644 C 328.668 57.621,328.952 57.557,328.918 57.502 C 328.728 57.195,329.208 57.003,330.216 56.981 C 331.274 56.958,331.333 56.936,331.333 56.562 C 331.333 55.959,334.444 55.939,334.530 56.542 M2.244 56.956 C 1.733 57.334,2.106 57.576,3.292 57.635 C 4.425 57.692,4.500 57.675,4.500 57.348 C 4.500 57.050,4.398 57.000,3.792 56.998 C 3.402 56.996,2.933 56.958,2.750 56.912 C 2.567 56.866,2.339 56.886,2.244 56.956 M72.958 56.930 C 72.890 56.999,72.833 57.193,72.833 57.361 C 72.833 57.704,74.217 57.823,74.418 57.497 C 74.476 57.404,74.580 57.363,74.650 57.407 C 74.720 57.450,74.778 57.376,74.778 57.243 C 74.778 57.109,74.659 56.999,74.514 56.998 C 74.369 56.997,73.987 56.953,73.667 56.900 C 73.346 56.847,73.027 56.861,72.958 56.930 M5.277 57.792 C 5.179 57.955,5.600 58.344,5.732 58.212 C 5.788 58.157,5.833 58.199,5.833 58.306 C 5.833 58.655,7.132 58.544,7.327 58.178 C 7.422 58.000,7.500 57.813,7.500 57.761 C 7.500 57.618,5.364 57.648,5.277 57.792 M69.333 58.053 C 69.333 58.411,69.397 58.438,70.208 58.415 C 72.061 58.363,72.333 57.667,70.500 57.667 C 69.391 57.667,69.333 57.686,69.333 58.053 M8.222 58.750 C 8.222 58.887,8.322 59.009,8.444 59.021 C 8.692 59.044,8.957 59.104,9.083 59.165 C 9.590 59.411,10.667 59.214,10.667 58.875 C 10.667 58.520,10.601 58.500,9.444 58.500 C 8.469 58.500,8.222 58.551,8.222 58.750 M66.700 58.910 L 66.513 59.321 67.362 59.246 C 68.837 59.116,69.179 58.500,67.777 58.500 C 66.993 58.500,66.865 58.549,66.700 58.910 M11.599 59.426 C 11.395 59.575,11.410 59.635,11.696 59.813 C 11.974 59.987,12.012 59.985,11.910 59.804 C 11.809 59.626,11.828 59.624,12.009 59.792 C 12.282 60.045,13.333 60.070,13.333 59.823 C 13.333 59.726,13.267 59.688,13.185 59.738 C 13.104 59.789,13.048 59.699,13.060 59.540 C 13.087 59.203,12.018 59.120,11.599 59.426 M63.755 59.491 C 63.701 59.579,63.816 59.619,64.011 59.581 C 64.267 59.532,64.338 59.580,64.271 59.757 C 64.205 59.927,64.289 59.996,64.547 59.988 C 65.045 59.973,65.408 59.795,65.458 59.542 C 65.508 59.291,63.908 59.244,63.755 59.491 M14.417 60.167 C 14.360 60.258,14.393 60.333,14.490 60.333 C 14.587 60.333,14.648 60.417,14.625 60.520 C 14.567 60.777,15.213 60.861,15.368 60.616 C 15.465 60.464,15.496 60.466,15.497 60.625 C 15.499 60.740,15.579 60.833,15.677 60.833 C 15.774 60.833,15.800 60.740,15.735 60.625 C 15.641 60.458,15.663 60.458,15.842 60.625 C 16.290 61.040,16.833 60.782,16.833 60.153 C 16.833 59.945,14.546 59.958,14.417 60.167 M60.816 60.375 C 61.026 60.940,62.333 60.946,62.333 60.382 C 62.333 60.035,62.257 60.000,61.505 60.000 C 60.717 60.000,60.684 60.018,60.816 60.375 M17.928 60.981 C 17.775 61.229,18.351 61.582,18.942 61.603 C 19.514 61.623,19.575 61.556,19.399 61.097 C 19.262 60.741,18.333 60.738,18.333 61.093 C 18.333 61.236,18.257 61.306,18.164 61.248 C 18.071 61.191,18.038 61.074,18.090 60.988 C 18.143 60.903,18.149 60.833,18.103 60.833 C 18.057 60.833,17.979 60.900,17.928 60.981 M57.642 61.016 C 57.561 61.501,57.626 61.572,58.167 61.590 C 58.772 61.611,59.222 61.395,59.288 61.051 C 59.314 60.918,59.053 60.855,58.497 60.859 C 58.040 60.862,57.655 60.933,57.642 61.016 M21.208 61.621 C 20.910 61.658,20.667 61.766,20.667 61.862 C 20.667 61.957,20.790 61.988,20.940 61.931 C 21.171 61.842,21.180 61.866,20.999 62.085 C 20.808 62.314,20.895 62.340,21.767 62.311 C 22.308 62.293,22.656 62.247,22.541 62.208 C 22.425 62.170,22.379 62.061,22.437 61.967 C 22.549 61.786,22.197 61.489,21.917 61.529 C 21.825 61.542,21.506 61.584,21.208 61.621 M54.601 61.764 C 54.412 62.257,54.499 62.323,55.290 62.286 C 55.866 62.260,56.093 62.177,56.131 61.980 C 56.222 61.505,54.779 61.301,54.601 61.764 M22.963 62.426 C 22.724 62.665,23.057 63.158,23.435 63.127 C 23.856 63.092,23.895 63.022,23.732 62.597 C 23.634 62.342,23.153 62.236,22.963 62.426 M52.553 63.116 C 52.063 63.211,52.093 63.836,52.585 63.795 C 52.818 63.776,52.943 63.639,52.965 63.383 C 52.982 63.172,52.978 63.010,52.956 63.023 C 52.935 63.035,52.753 63.077,52.553 63.116 M24.530 63.542 C 24.563 63.771,24.692 63.909,24.862 63.896 C 25.026 63.883,25.182 64.037,25.240 64.271 C 25.302 64.515,25.462 64.667,25.658 64.667 C 25.862 64.667,25.996 64.802,26.030 65.042 C 26.065 65.288,26.198 65.417,26.417 65.417 C 26.635 65.417,26.768 65.546,26.803 65.792 C 26.850 66.124,27.008 66.238,27.358 66.192 C 27.418 66.184,27.513 66.363,27.570 66.589 C 27.636 66.853,27.791 67.000,28.003 67.000 C 28.464 67.000,28.462 66.239,28.000 66.118 C 27.801 66.066,27.667 65.891,27.667 65.682 C 27.667 65.481,27.559 65.333,27.413 65.333 C 27.273 65.333,27.091 65.156,27.009 64.939 C 26.926 64.723,26.703 64.505,26.513 64.455 C 26.322 64.405,26.167 64.245,26.167 64.099 C 26.167 63.927,26.020 63.833,25.750 63.833 C 25.444 63.833,25.333 63.744,25.333 63.500 C 25.333 63.253,25.222 63.167,24.905 63.167 C 24.556 63.167,24.487 63.236,24.530 63.542 M50.667 64.149 C 50.667 64.348,50.510 64.503,50.239 64.571 C 49.917 64.652,49.825 64.769,49.864 65.048 C 49.939 65.575,50.728 65.570,50.803 65.042 C 50.837 64.801,50.971 64.667,51.178 64.667 C 51.410 64.667,51.500 64.551,51.500 64.250 C 51.500 63.917,51.417 63.833,51.083 63.833 C 50.786 63.833,50.667 63.923,50.667 64.149 M49.167 66.571 C 49.167 66.917,49.086 67.000,48.751 67.000 C 48.419 67.000,48.347 67.073,48.390 67.361 C 48.473 67.902,49.167 67.961,49.167 67.427 C 49.167 67.165,49.288 66.984,49.509 66.914 C 49.917 66.784,49.879 66.279,49.456 66.198 C 49.242 66.157,49.167 66.253,49.167 66.571 M28.542 67.622 C 28.221 67.734,28.295 68.301,28.656 68.494 C 29.123 68.744,29.167 68.718,29.167 68.184 C 29.167 67.700,28.929 67.487,28.542 67.622 M47.770 68.381 C 47.412 68.643,47.526 69.770,47.889 69.553 C 47.996 69.489,47.980 69.563,47.855 69.718 C 47.729 69.873,47.701 70.000,47.793 70.000 C 48.244 70.000,48.601 68.869,48.286 68.438 C 48.108 68.195,48.036 68.187,47.770 68.381 M29.132 69.733 C 29.163 70.109,29.195 70.495,29.205 70.592 C 29.240 70.951,29.833 70.820,29.853 70.448 C 29.864 70.247,29.883 69.901,29.895 69.679 C 29.911 69.379,29.809 69.246,29.497 69.162 C 29.092 69.053,29.079 69.074,29.132 69.733 M47.222 70.449 C 46.557 70.579,46.557 73.207,47.222 73.105 C 47.556 73.054,47.585 72.947,47.608 71.691 C 47.621 70.944,47.621 70.344,47.608 70.356 C 47.594 70.369,47.421 70.410,47.222 70.449 M29.848 73.330 C 29.876 74.482,29.923 74.673,30.203 74.761 C 30.643 74.901,30.654 74.878,30.735 73.591 C 30.821 72.218,30.751 72.000,30.223 72.000 C 29.823 72.000,29.817 72.022,29.848 73.330 M46.123 73.933 C 45.972 74.083,46.179 74.512,46.351 74.406 C 46.433 74.355,46.500 74.398,46.500 74.500 C 46.500 74.602,46.575 74.640,46.667 74.583 C 46.961 74.401,46.856 73.833,46.528 73.833 C 46.360 73.833,46.177 73.878,46.123 73.933 M46.288 75.022 C 45.935 75.220,45.868 76.916,46.208 77.041 C 46.683 77.215,46.833 76.963,46.833 75.996 C 46.833 74.944,46.736 74.771,46.288 75.022 M30.682 77.708 C 30.721 79.159,30.775 79.333,31.184 79.333 C 31.469 79.333,31.500 79.196,31.500 77.917 C 31.500 76.509,31.497 76.500,31.075 76.500 C 30.654 76.500,30.649 76.515,30.682 77.708 M45.542 78.788 C 45.220 78.901,45.251 81.667,45.573 81.667 C 45.945 81.667,46.024 81.417,46.078 80.087 C 46.127 78.863,46.027 78.619,45.542 78.788 M31.489 80.556 C 31.385 80.799,31.393 81.500,31.500 81.500 C 31.580 81.500,31.578 81.727,31.497 82.011 C 31.307 82.671,31.560 83.378,31.959 83.302 C 32.295 83.239,32.437 82.489,32.195 82.057 C 32.091 81.871,32.097 81.635,32.213 81.381 C 32.343 81.097,32.338 80.938,32.197 80.797 C 32.036 80.636,31.528 80.464,31.489 80.556 M44.503 83.530 C 44.504 84.293,44.560 84.992,44.628 85.083 C 44.791 85.306,45.220 85.388,45.086 85.171 C 45.028 85.077,45.063 85.000,45.164 85.000 C 45.577 85.000,45.294 82.256,44.875 82.197 C 44.512 82.145,44.500 82.187,44.503 83.530 M32.263 84.275 C 32.122 84.645,32.138 84.667,32.458 84.546 C 32.723 84.446,32.722 84.464,32.442 84.746 C 32.174 85.016,32.116 86.576,32.328 87.781 C 32.331 87.799,32.486 87.801,32.672 87.787 C 33.166 87.750,33.158 84.083,32.664 84.046 C 32.497 84.033,32.317 84.136,32.263 84.275 M43.728 88.088 C 43.820 90.835,44.440 90.692,44.487 87.912 L 44.513 86.333 44.091 86.333 L 43.669 86.333 43.728 88.088 M33.012 89.958 C 33.025 91.256,33.160 91.705,33.553 91.763 C 33.798 91.799,33.833 91.614,33.833 90.319 C 33.833 88.845,33.830 88.833,33.417 88.833 C 33.012 88.833,33.000 88.866,33.012 89.958 M43.389 90.616 C 42.928 90.706,42.891 90.845,42.966 92.208 C 43.030 93.364,43.485 93.835,43.745 93.016 C 43.823 92.771,43.844 90.423,43.767 90.523 C 43.758 90.535,43.588 90.577,43.389 90.616 M33.755 93.803 C 33.909 96.104,33.913 96.137,34.074 96.284 C 34.155 96.357,34.167 96.324,34.100 96.208 C 34.034 96.094,34.054 96.000,34.143 96.000 C 34.232 96.000,34.337 96.094,34.375 96.208 C 34.462 96.470,34.653 93.979,34.613 93.095 C 34.587 92.530,34.520 92.424,34.115 92.316 L 33.647 92.190 33.755 93.803 M42.167 96.673 C 42.167 97.819,42.201 97.964,42.458 97.915 C 42.619 97.884,42.795 97.853,42.851 97.846 C 43.248 97.796,42.994 95.375,42.592 95.375 C 42.173 95.375,42.167 95.393,42.167 96.673 M34.575 97.348 C 34.440 97.566,34.557 99.682,34.709 99.776 C 34.781 99.820,34.788 99.938,34.727 100.037 C 34.663 100.140,34.692 100.171,34.793 100.108 C 34.891 100.047,35.005 100.092,35.046 100.207 C 35.243 100.757,35.408 99.392,35.346 97.728 C 35.333 97.361,34.745 97.072,34.575 97.348 M41.440 99.416 C 41.387 99.554,41.406 99.835,41.482 100.041 C 41.561 100.252,41.551 100.616,41.460 100.876 C 41.255 101.465,41.397 101.833,41.828 101.833 C 42.222 101.833,42.338 100.597,41.958 100.444 C 41.792 100.376,41.792 100.357,41.958 100.346 C 42.328 100.323,42.223 99.167,41.851 99.167 C 41.678 99.167,41.493 99.279,41.440 99.416 M35.426 100.963 C 35.375 101.014,35.333 101.183,35.333 101.338 C 35.333 101.709,36.059 101.686,36.131 101.313 C 36.181 101.050,35.619 100.770,35.426 100.963 M35.364 102.915 C 35.391 103.404,35.470 103.768,35.540 103.725 C 35.610 103.682,35.667 103.770,35.667 103.921 C 35.667 104.071,35.760 104.164,35.875 104.126 C 36.105 104.050,36.272 102.175,36.050 102.154 C 35.977 102.147,35.781 102.115,35.616 102.084 C 35.352 102.034,35.322 102.135,35.364 102.915 M40.667 104.548 C 40.667 106.294,40.690 106.429,40.988 106.429 C 41.165 106.429,41.306 106.388,41.302 106.339 C 41.297 106.290,41.311 106.212,41.333 106.167 C 41.354 106.121,41.397 105.315,41.428 104.375 L 41.484 102.667 41.076 102.667 L 40.667 102.667 40.667 104.548 M36.085 106.493 C 36.114 107.001,36.144 107.539,36.152 107.689 C 36.160 107.839,36.337 107.994,36.546 108.034 C 36.866 108.095,36.920 108.040,36.893 107.678 C 36.875 107.443,36.854 106.857,36.847 106.377 C 36.834 105.560,36.808 105.506,36.432 105.537 C 36.054 105.568,36.035 105.622,36.085 106.493 M40.092 107.057 C 39.848 107.234,39.810 107.404,39.901 107.890 C 40.102 108.962,40.658 108.526,40.664 107.292 C 40.667 106.780,40.541 106.728,40.092 107.057 " stroke="none" fill="#b4bcbc" fill-rule="evenodd"></path></g></svg>